<svg width="4" height="6" viewBox="0 0 4 6" fill="none" xmlns="http://www.w3.org/2000/svg">
<g clip-path="url(#clip0)">
<path d="M3.83301 0.535887L3.83284 3L3.83301 5.46411C3.83301 5.75952 3.67171 6 3.4733 6C3.4191 6 3.36653 5.98145 3.31705 5.94506C2.77051 5.54565 1.99544 4.87573 1.31152 4.28466C0.954102 3.97582 0.61654 3.68407 0.360024 3.47313C0.238766 3.37328 0.166337 3.19652 0.166337 2.99974C0.166337 2.80321 0.238766 2.62645 0.360024 2.5266C0.616376 2.31591 0.953774 2.0244 1.31087 1.7158C1.99495 1.1245 2.77034 0.45457 3.31673 0.054914C3.36637 0.0185509 3.4191 -1.80924e-08 3.4733 -1.57231e-08C3.67171 -7.05051e-09 3.83301 0.24048 3.83301 0.535887Z" fill="#FF674D"/>
</g>
<defs>
<clipPath id="clip0">
<rect width="6" height="4" fill="#FF674D" transform="matrix(4.37114e-08 -1 -1 -4.37114e-08 4 6)"/>
</clipPath>
</defs>
</svg>
