<svg width="20" height="20" viewBox="0 0 20 20" fill="none" xmlns="http://www.w3.org/2000/svg">
<path fill-rule="evenodd" clip-rule="evenodd" d="M12.8276 7.17182C13.023 7.36705 13.023 7.68363 12.8276 7.87896L7.87797 12.8286C7.68275 13.024 7.36616 13.024 7.17083 12.8286C6.97561 12.6333 6.97561 12.3168 7.17083 12.1215L12.1206 7.17172C12.3158 6.9766 12.6324 6.9766 12.8276 7.17182Z" fill="#AEAEAE"/>
<path fill-rule="evenodd" clip-rule="evenodd" d="M7.17083 7.17132C7.36606 6.9761 7.68265 6.9761 7.87798 7.17132L12.8278 12.121C13.0231 12.3163 13.0231 12.6329 12.8278 12.8283C12.6324 13.0235 12.316 13.0235 12.1206 12.8283L7.17083 7.87847C6.97561 7.68324 6.97561 7.36665 7.17083 7.17132Z" fill="#AEAEAE"/>
<path fill-rule="evenodd" clip-rule="evenodd" d="M10 19C14.9706 19 19 14.9707 19 10C19 5.02944 14.9707 0.999979 10 0.999979C5.02944 0.999979 0.999979 5.02944 0.999979 10C0.999979 14.9706 5.02944 19 10 19ZM10 20C15.5228 20 20 15.5228 20 10C20 4.47711 15.5228 0 10 0C4.47711 0 0 4.47711 0 10C0 15.5228 4.47711 20 10 20Z" fill="#AEAEAE"/>
</svg>
