<svg width="60" height="176" viewBox="0 0 60 176" fill="none" xmlns="http://www.w3.org/2000/svg">
<g clip-path="url(#clip0)">
<path d="M27.2599 101.589V16.0862C27.2599 8.33822 23.0132 0 13.6974 0H0V117.682H13.5625C20.1606 117.682 27.2599 112.645 27.2599 101.589ZM4.72213 4.59803H13.5625C17.8863 4.59803 22.557 8.10488 22.557 15.798V101.884C22.557 109.57 17.9056 113.077 13.5625 113.077H4.72213V4.59803Z" fill="#1D1D1B"/>
<path d="M46.3086 175.082C48.1131 175.08 49.8977 174.679 51.5505 173.906C53.2033 173.132 54.6887 172.002 55.9135 170.587L60.006 174.306V111.972H46.4436V116.57H55.2839V160.011C55.2839 167.416 50.5232 170.038 46.4436 170.038C42.1198 170.038 37.449 166.991 37.449 160.306V69.842C37.449 62.1488 42.0298 58.6488 46.2894 58.6488C50.5489 58.6488 55.2839 62.1488 55.2839 69.842V97.0184H60.006V69.9861C60.006 58.7312 52.9775 53.6047 46.4436 53.6047C39.6398 53.6047 32.7462 59.2322 32.7462 69.9861V160.293C32.7205 169.901 39.7362 175.082 46.3086 175.082Z" fill="#1D1D1B"/>
</g>
<defs>
<clipPath id="clip0">
<rect width="60" height="175.082" fill="white"/>
</clipPath>
</defs>
</svg>
