<svg width="18" height="18" viewBox="0 0 18 18" fill="none" xmlns="http://www.w3.org/2000/svg">
<path d="M15.8906 0H2.10938C0.946198 0 0 0.946198 0 2.10938V15.8906C0 17.0538 0.946198 18 2.10938 18H15.8906C17.0538 18 18 17.0538 18 15.8906V2.10938C18 0.946198 17.0538 0 15.8906 0ZM16.5938 15.8906C16.5938 16.2783 16.2783 16.5938 15.8906 16.5938H11.7422V11.4609H13.9931L14.2554 9.28125H11.7422V6.92578C11.7422 6.32455 12.1956 5.87109 12.7969 5.87109H14.3789V3.83203C13.9625 3.77325 13.1593 3.69141 12.7969 3.69141C11.9769 3.69141 11.155 4.03734 10.5419 4.64035C9.91035 5.26163 9.5625 6.07544 9.5625 6.93196V9.28125H7.27734V11.4609H9.5625V16.5938H2.10938C1.72169 16.5938 1.40625 16.2783 1.40625 15.8906V2.10938C1.40625 1.72169 1.72169 1.40625 2.10938 1.40625H15.8906C16.2783 1.40625 16.5938 1.72169 16.5938 2.10938V15.8906Z" fill="#7D7D7D"/>
</svg>
