<svg width="37" height="104" viewBox="0 0 37 104" fill="none" xmlns="http://www.w3.org/2000/svg">
<g clip-path="url(#clip0)">
<path d="M16.8664 60.3446V9.55535C16.8664 4.95296 14.3472 0 8.82089 0H0.695312V69.904H8.74085C12.655 69.904 16.8664 66.9119 16.8664 60.3446ZM3.49658 2.73126H8.74085C11.3058 2.73126 14.0766 4.81436 14.0766 9.38413V60.5199C14.0766 65.0856 11.3173 67.1687 8.74085 67.1687H3.49658V2.73126Z" fill="white"/>
<path d="M28.1667 104C29.2371 103.999 30.2958 103.761 31.2763 103.301C32.2567 102.842 33.1379 102.171 33.8645 101.33L36.2923 103.539V66.5124H28.2467V69.2437H33.491V95.048C33.491 99.4466 30.6669 101.004 28.2467 101.004C25.6817 101.004 22.911 99.1938 22.911 95.2233V41.4867C22.911 36.9169 25.6284 34.8379 28.1552 34.8379C30.6821 34.8379 33.491 36.9169 33.491 41.4867V57.6297H36.2923V41.5723C36.2923 34.8868 32.1227 31.8417 28.2467 31.8417C24.2106 31.8417 20.1211 35.1844 20.1211 41.5723V95.2151C20.1059 100.922 24.2678 104 28.1667 104Z" fill="white"/>
</g>
<defs>
<clipPath id="clip0">
<rect width="35.5932" height="104" fill="white" transform="translate(0.695312)"/>
</clipPath>
</defs>
</svg>
