<svg width="4" height="6" viewBox="0 0 4 6" fill="none" xmlns="http://www.w3.org/2000/svg">
<g clip-path="url(#clip0)">
<path d="M0.167969 0.535887L0.168133 3L0.167969 5.46411C0.167969 5.75952 0.329266 6 0.527672 6C0.581875 6 0.634445 5.98145 0.683922 5.94506C1.23047 5.54565 2.00554 4.87573 2.68945 4.28466C3.04687 3.97582 3.38444 3.68407 3.64095 3.47313C3.76221 3.37328 3.83464 3.19652 3.83464 2.99974C3.83464 2.80321 3.76221 2.62645 3.64095 2.5266C3.3846 2.31591 3.0472 2.0244 2.69011 1.7158C2.00602 1.1245 1.23063 0.45457 0.68425 0.054914C0.634609 0.0185509 0.581875 -1.80924e-08 0.527672 -1.57231e-08C0.329265 -7.05051e-09 0.167968 0.24048 0.167969 0.535887Z" fill="#1D1D1B"/>
</g>
<defs>
<clipPath id="clip0">
<rect width="6" height="4" fill="white" transform="translate(0 6) rotate(-90)"/>
</clipPath>
</defs>
</svg>
