<svg width="17" height="18" viewBox="0 0 17 18" fill="none" xmlns="http://www.w3.org/2000/svg">
<g clip-path="url(#clip0)">
<path d="M8.66731 18.0005C8.61102 18.0005 8.55473 18.0005 8.49805 18.0002C7.16552 18.0036 5.93428 17.9678 4.73689 17.8906C3.63911 17.8199 2.63705 17.4182 1.83888 16.7291C1.06873 16.0641 0.542793 15.165 0.275742 14.057C0.0433197 13.0924 0.0309982 12.1456 0.0191956 11.2297C0.0106354 10.5726 0.0018158 9.79393 0 9.00209C0.0018158 8.20696 0.0106354 7.4283 0.0191956 6.77118C0.0309982 5.85547 0.0433197 4.90858 0.275742 3.94385C0.542793 2.83587 1.06873 1.93678 1.83888 1.27183C2.63705 0.582714 3.63911 0.181026 4.73702 0.110301C5.93441 0.0332595 7.16591 -0.00272079 8.5013 0.000712442C9.83422 -0.0023088 11.0651 0.0332595 12.2625 0.110301C13.3602 0.181026 14.3623 0.582714 15.1605 1.27183C15.9308 1.93678 16.4566 2.83587 16.7236 3.94385C16.956 4.90845 16.9684 5.85547 16.9802 6.77118C16.9887 7.4283 16.9977 8.20696 16.9994 8.9988V9.00209C16.9977 9.79393 16.9887 10.5726 16.9802 11.2297C16.9684 12.1454 16.9562 13.0923 16.7236 14.057C16.4566 15.165 15.9308 16.0641 15.1605 16.7291C14.3623 17.4182 13.3602 17.8199 12.2625 17.8906C11.1158 17.9645 9.93785 18.0005 8.66731 18.0005ZM8.49805 16.5939C9.80893 16.5972 11.0125 16.5622 12.1818 16.4869C13.0119 16.4335 13.7316 16.1483 14.3212 15.6392C14.8662 15.1686 15.2415 14.5193 15.4367 13.7093C15.6302 12.9064 15.6414 12.0442 15.6522 11.2105C15.6606 10.5578 15.6694 9.7846 15.6712 9.00045C15.6694 8.21616 15.6606 7.44313 15.6522 6.79041C15.6414 5.95668 15.6302 5.09453 15.4367 4.29143C15.2415 3.48146 14.8662 2.83217 14.3212 2.36154C13.7316 1.8526 13.0119 1.56736 12.1818 1.51394C11.0125 1.43855 9.80893 1.40381 8.50117 1.40683C7.19055 1.40353 5.98681 1.43855 4.81757 1.51394C3.98749 1.56736 3.26778 1.8526 2.67817 2.36154C2.13317 2.83217 1.75782 3.48146 1.56262 4.29143C1.36911 5.09453 1.35796 5.95654 1.34719 6.79041C1.33876 7.44368 1.32994 8.21726 1.32812 9.00209C1.32994 9.7835 1.33876 10.5572 1.34719 11.2105C1.35796 12.0442 1.36911 12.9064 1.56262 13.7093C1.75782 14.5193 2.13317 15.1686 2.67817 15.6392C3.26778 16.1482 3.98749 16.4334 4.81757 16.4868C5.98681 16.5622 7.19081 16.5974 8.49805 16.5939ZM8.46641 13.395C6.17799 13.395 4.31602 11.4236 4.31602 9.00045C4.31602 6.57727 6.17799 4.60591 8.46641 4.60591C10.755 4.60591 12.6168 6.57727 12.6168 9.00045C12.6168 11.4236 10.755 13.395 8.46641 13.395ZM8.46641 6.01216C6.91027 6.01216 5.64414 7.35277 5.64414 9.00045C5.64414 10.6481 6.91027 11.9887 8.46641 11.9887C10.0227 11.9887 11.2887 10.6481 11.2887 9.00045C11.2887 7.35277 10.0227 6.01216 8.46641 6.01216ZM13.0816 3.19966C12.5316 3.19966 12.0855 3.6718 12.0855 4.25435C12.0855 4.8369 12.5316 5.30904 13.0816 5.30904C13.6318 5.30904 14.0777 4.8369 14.0777 4.25435C14.0777 3.6718 13.6318 3.19966 13.0816 3.19966Z" fill="#7D7D7D"/>
</g>
<defs>
<clipPath id="clip0">
<rect width="17" height="18" fill="white"/>
</clipPath>
</defs>
</svg>
