<svg width="19" height="18" viewBox="0 0 19 18" fill="none" xmlns="http://www.w3.org/2000/svg">
<g clip-path="url(#clip0)">
<path d="M5.93779 14.8711H3.34013V6.92578H5.93779V14.8711ZM6.19698 4.39439C6.19698 3.59885 5.51567 2.95312 4.67636 2.95312C3.83386 2.95312 3.1543 3.59885 3.1543 4.39439C3.1543 5.19022 3.83386 5.83594 4.67636 5.83594C5.51567 5.83594 6.19698 5.19022 6.19698 4.39439ZM15.6602 10.4999C15.6602 8.36705 15.1845 6.78516 12.5546 6.78516C11.2908 6.78516 10.4425 7.38391 10.0962 8.00656H10.0938V6.92578H7.57031V14.8711H10.0938V10.9262C10.0938 9.89305 10.3713 8.8922 11.7231 8.8922C13.0564 8.8922 13.0996 10.0736 13.0996 10.9918V14.8711H15.6602V10.4999ZM19 15.8906V2.10938C19 0.946198 18.0012 0 16.7734 0H2.22656C0.998764 0 0 0.946198 0 2.10938V15.8906C0 17.0538 0.998764 18 2.22656 18H16.7734C18.0012 18 19 17.0538 19 15.8906ZM16.7734 1.40625C17.1827 1.40625 17.5156 1.72169 17.5156 2.10938V15.8906C17.5156 16.2783 17.1827 16.5938 16.7734 16.5938H2.22656C1.81734 16.5938 1.48438 16.2783 1.48438 15.8906V2.10938C1.48438 1.72169 1.81734 1.40625 2.22656 1.40625H16.7734Z" fill="#7D7D7D"/>
</g>
<defs>
<clipPath id="clip0">
<rect width="19" height="18" fill="white"/>
</clipPath>
</defs>
</svg>
