<svg width="36" height="36" viewBox="0 0 36 36" fill="none" xmlns="http://www.w3.org/2000/svg">
<g clip-path="url(#clip0)">
<path d="M9.39538 36C9.60304 36.0004 9.80233 35.9182 9.94933 35.7715L27.1625 18.5584C27.468 18.2529 27.468 17.7576 27.1625 17.452L9.94933 0.238832C9.6491 -0.0719585 9.15383 -0.0805406 8.84297 0.219614C8.53218 0.519842 8.5236 1.01511 8.82375 1.32598C8.83006 1.3325 8.83644 1.33889 8.84297 1.34519L25.5022 18.0044L8.84143 34.6637C8.53548 34.9688 8.53489 35.4642 8.84003 35.7702C8.98718 35.9176 9.18706 36.0004 9.39538 36Z" fill="#F44336"/>
<path d="M9.39538 36C9.60304 36.0004 9.80233 35.9182 9.94933 35.7715L27.1625 18.5584C27.468 18.2529 27.468 17.7576 27.1625 17.452L9.94933 0.238832C9.6491 -0.0719585 9.15383 -0.0805406 8.84297 0.219614C8.53218 0.519842 8.5236 1.01511 8.82375 1.32598C8.83006 1.3325 8.83644 1.33889 8.84297 1.34519L25.5022 18.0044L8.84143 34.6637C8.53548 34.9688 8.53489 35.4642 8.84003 35.7702C8.98718 35.9176 9.18706 36.0004 9.39538 36Z" fill="#FF674D;"/>
</g>
<defs>
<clipPath id="clip0">
<rect width="36" height="36" fill="#FF674D;" transform="matrix(-1 0 0 1 36 0)"/>
</clipPath>
</defs>
</svg>
