<svg width="24" height="24" viewBox="0 0 24 24" fill="none" xmlns="http://www.w3.org/2000/svg">
<g clip-path="url(#clip0)">
<path d="M6.26424 24C6.40268 24.0002 6.53554 23.9455 6.63354 23.8477L18.109 12.3723C18.3126 12.1686 18.3126 11.8384 18.109 11.6347L6.63354 0.159221C6.43339 -0.0479723 6.10321 -0.0536938 5.89596 0.146409C5.68877 0.346561 5.68305 0.676741 5.88315 0.883984C5.88736 0.888336 5.89161 0.892591 5.89596 0.896796L17.0021 12.003L5.89494 23.1091C5.69097 23.3125 5.69058 23.6428 5.89401 23.8468C5.9921 23.9451 6.12536 24.0002 6.26424 24Z" fill="#F44336"/>
<path d="M6.26424 24C6.40268 24.0002 6.53554 23.9455 6.63354 23.8477L18.109 12.3723C18.3126 12.1686 18.3126 11.8384 18.109 11.6347L6.63354 0.159221C6.43339 -0.0479723 6.10321 -0.0536938 5.89596 0.146409C5.68877 0.346561 5.68305 0.676741 5.88315 0.883984C5.88736 0.888336 5.89161 0.892591 5.89596 0.896796L17.0021 12.003L5.89494 23.1091C5.69097 23.3125 5.69058 23.6428 5.89401 23.8468C5.9921 23.9451 6.12536 24.0002 6.26424 24Z" fill="#F44336"/>
</g>
<defs>
<clipPath id="clip0">
<rect width="24" height="24" fill="white" transform="matrix(-1 0 0 1 24 0)"/>
</clipPath>
</defs>
</svg>
