<svg width="24" height="24" viewBox="0 0 24 24" fill="none" xmlns="http://www.w3.org/2000/svg">
<g clip-path="url(#clip0)">
<path d="M17.7358 24C17.5973 24.0002 17.4645 23.9455 17.3665 23.8477L5.891 12.3723C5.68738 12.1686 5.68738 11.8384 5.891 11.6347L17.3665 0.159221C17.5666 -0.0479723 17.8968 -0.0536938 18.104 0.146409C18.3112 0.346561 18.317 0.676741 18.1168 0.883984C18.1126 0.888336 18.1084 0.892591 18.104 0.896796L6.99787 12.003L18.1051 23.1091C18.309 23.3125 18.3094 23.6428 18.106 23.8468C18.0079 23.9451 17.8746 24.0002 17.7358 24Z" fill="#F44336"/>
<path d="M17.7358 24C17.5973 24.0002 17.4645 23.9455 17.3665 23.8477L5.891 12.3723C5.68738 12.1686 5.68738 11.8384 5.891 11.6347L17.3665 0.159221C17.5666 -0.0479723 17.8968 -0.0536938 18.104 0.146409C18.3112 0.346561 18.317 0.676741 18.1168 0.883984C18.1126 0.888336 18.1084 0.892591 18.104 0.896796L6.99787 12.003L18.1051 23.1091C18.309 23.3125 18.3094 23.6428 18.106 23.8468C18.0079 23.9451 17.8746 24.0002 17.7358 24Z" fill="#F44336"/>
</g>
<defs>
<clipPath id="clip0">
<rect width="24" height="24" fill="white"/>
</clipPath>
</defs>
</svg>
