<svg width="36" height="36" viewBox="0 0 36 36" fill="none" xmlns="http://www.w3.org/2000/svg">
<g clip-path="url(#clip0)">
<path d="M26.6046 36C26.397 36.0004 26.1977 35.9182 26.0507 35.7715L8.83748 18.5584C8.53204 18.2529 8.53204 17.7576 8.83748 17.452L26.0507 0.238832C26.3509 -0.0719585 26.8462 -0.0805406 27.157 0.219614C27.4678 0.519842 27.4764 1.01511 27.1763 1.32598C27.1699 1.3325 27.1636 1.33889 27.157 1.34519L10.4978 18.0044L27.1586 34.6637C27.4645 34.9688 27.4651 35.4642 27.16 35.7702C27.0128 35.9176 26.8129 36.0004 26.6046 36Z" fill="#F44336"/>
<path d="M26.6046 36C26.397 36.0004 26.1977 35.9182 26.0507 35.7715L8.83748 18.5584C8.53204 18.2529 8.53204 17.7576 8.83748 17.452L26.0507 0.238832C26.3509 -0.0719585 26.8462 -0.0805406 27.157 0.219614C27.4678 0.519842 27.4764 1.01511 27.1763 1.32598C27.1699 1.3325 27.1636 1.33889 27.157 1.34519L10.4978 18.0044L27.1586 34.6637C27.4645 34.9688 27.4651 35.4642 27.16 35.7702C27.0128 35.9176 26.8129 36.0004 26.6046 36Z" fill="#FF674D;"/>
</g>
<defs>
<clipPath id="clip0">
<rect width="36" height="36" fill="#FF674D;"/>
</clipPath>
</defs>
</svg>
