<svg width="4" height="6" viewBox="0 0 4 6" fill="none" xmlns="http://www.w3.org/2000/svg">
<g clip-path="url(#clip0)">
<path d="M0.166504 0.535887L0.166668 3L0.166504 5.46411C0.166504 5.75952 0.327801 6 0.526207 6C0.58041 6 0.63298 5.98145 0.682457 5.94506C1.229 5.54565 2.00407 4.87573 2.68799 4.28466C3.04541 3.97582 3.38297 3.68407 3.63949 3.47313C3.76075 3.37328 3.83318 3.19652 3.83318 2.99974C3.83318 2.80321 3.76075 2.62645 3.63949 2.5266C3.38314 2.31591 3.04574 2.0244 2.68864 1.7158C2.00456 1.1245 1.22917 0.45457 0.682785 0.054914C0.633144 0.0185509 0.58041 -1.80924e-08 0.526207 -1.57231e-08C0.327801 -7.05051e-09 0.166504 0.24048 0.166504 0.535887Z" fill="#1D1D1B"/>
</g>
<defs>
<clipPath id="clip0">
<rect width="6" height="4" fill="white" transform="translate(0 6) rotate(-90)"/>
</clipPath>
</defs>
</svg>
