<?xml version="1.0" standalone="no"?>
<!DOCTYPE svg PUBLIC "-//W3C//DTD SVG 1.1//EN" "http://www.w3.org/Graphics/SVG/1.1/DTD/svg11.dtd" >
<svg xmlns="http://www.w3.org/2000/svg" xmlns:xlink="http://www.w3.org/1999/xlink" version="1.1">
<metadata>
Created by FontForge 20170731 at Wed Jan 21 14:06:46 2004
 By Aleksey,,,
(c) 2003 Gareth Hague / Alias
</metadata>
<defs>
<font id="CactusMedium" horiz-adv-x="313" >
  <font-face 
    font-family="CactusMedium"
    font-weight="400"
    font-stretch="normal"
    units-per-em="1000"
    panose-1="0 0 4 0 0 0 0 0 0 0"
    ascent="800"
    descent="-200"
    x-height="586"
    cap-height="800"
    bbox="-35 -214 1000 1047"
    underline-thickness="20"
    underline-position="-163"
    unicode-range="U+0020-F002"
  />
<missing-glyph horiz-adv-x="500" 
d="M63 0v800h375v-800h-375zM125 63h250v675h-250v-675z" />
    <glyph glyph-name=".notdef" horiz-adv-x="500" 
d="M63 0v800h375v-800h-375zM125 63h250v675h-250v-675z" />
    <glyph glyph-name=".null" horiz-adv-x="0" 
 />
    <glyph glyph-name="nonmarkingreturn" horiz-adv-x="148" 
 />
    <glyph glyph-name="space" unicode=" " horiz-adv-x="148" 
 />
    <glyph glyph-name="exclam" unicode="!" horiz-adv-x="156" 
d="M114 800l-18 -586h-35l-19 586h72zM106 0h-56v176h56v-176z" />
    <glyph glyph-name="quotedbl" unicode="&#x22;" horiz-adv-x="291" 
d="M249 800l-19 -309h-35l-19 309h73zM115 800l-19 -309h-35l-19 309h73z" />
    <glyph glyph-name="numbersign" unicode="#" horiz-adv-x="454" 
d="M440 395l-19 -55h-87l-27 -94h87l-19 -55h-86l-55 -191h-58l54 191h-70l-55 -191h-58l54 191h-87l19 55h87l26 94h-87l19 55h87l54 191h59l-55 -191h71l54 191h59l-55 -191h88zM275 340h-70l-27 -94h71z" />
    <glyph glyph-name="dollar" unicode="$" 
d="M268 193q0 -48 -25 -80q-23 -28 -60 -35v-78h-58v80q-80 22 -80 114v82h58v-79q0 -26 15 -44t40 -18q52 0 52 62q0 37 -24 83l-109 210q-32 62 -32 115q0 96 80 116v79h58v-79q37 -9 60 -38q25 -32 25 -79v-75h-58v75q0 26 -15 44t-40 18q-53 0 -53 -63q0 -35 26 -85
l109 -210q31 -60 31 -115z" />
    <glyph glyph-name="percent" unicode="%" horiz-adv-x="424" 
d="M268 576q0 -56 -33 -90t-79 -34t-77 32q-34 35 -34 92v113q0 56 33 90t79 34t77 -32q34 -35 34 -92v-113zM380 420l-320 -92l-16 53l320 92zM378 111q0 -56 -33 -90t-79 -34t-77 32q-34 35 -34 92v113q0 56 33 90t79 34t77 -32q34 -35 34 -92v-113zM210 574v117
q0 29 -15.5 45t-38.5 16q-21 0 -37 -16t-16 -45v-117q0 -29 16 -45.5t37 -16.5q22 0 38 16.5t16 45.5zM320 109v117q0 29 -15.5 45t-38.5 16q-21 0 -37 -16t-16 -45v-117q0 -29 16 -45.5t37 -16.5q22 0 38 16.5t16 45.5z" />
    <glyph glyph-name="ampersand" unicode="&#x26;" horiz-adv-x="346" 
d="M325 266l-77 -177q10 -32 40 -32h33v-57h-40q-43 0 -64 28q-30 -41 -78 -41q-40 0 -67 28t-27 79v9q0 45 35 152l38 116l-54 213q-19 75 -19 112q0 55 35 87q31 30 77 30q45 0 78 -31t33 -86q0 -41 -23 -112l-70 -215l47 -197l50 115zM210 694q0 31 -16.5 47t-38.5 16
q-52 0 -52 -63q0 -32 19 -110l28 -115l37 114q23 71 23 111zM185 89l-43 181l-14 -42q-25 -75 -25 -123v-14q0 -49 37 -49q28 0 40 33z" />
    <glyph glyph-name="quotesingle" unicode="'" horiz-adv-x="177" 
d="M115 800l-19 -309h-35l-19 309h73z" />
    <glyph glyph-name="parenleft" unicode="(" horiz-adv-x="204" 
d="M160 752q-23 0 -39 -16q-18 -19 -18 -49v-652q-1 -30 18 -48q16 -17 38 -17v-60q-49 0 -81.5 34.5t-32.5 92.5v648q0 57 33 92t82 35v-60z" />
    <glyph glyph-name="parenright" unicode=")" horiz-adv-x="204" 
d="M160 37q0 -58 -32.5 -92.5t-81.5 -34.5v60q22 0 39 17.5t17 47.5v652q0 30 -18 49q-16 16 -39 16v60q49 0 82 -35t33 -92v-648z" />
    <glyph glyph-name="asterisk" unicode="*" horiz-adv-x="395" 
d="M385 642l-157 -37l106 -122l-53 -38l-83 138l-83 -137l-52 38l105 121l-157 37l20 61l149 -63l-15 160h66l-15 -160l149 63z" />
    <glyph glyph-name="plus" unicode="+" horiz-adv-x="359" 
d="M314 370h-105v-148h-59v148h-105v58h105v148h59v-148h105v-58z" />
    <glyph glyph-name="comma" unicode="," horiz-adv-x="159" 
d="M120 176l-84 -309h-42l57 309h69z" />
    <glyph glyph-name="hyphen" unicode="-" horiz-adv-x="276" 
d="M231 371h-186v58h186v-58z" />
    <glyph glyph-name="hyphen" unicode="&#x2010;" horiz-adv-x="276" 
d="M231 371h-186v58h186v-58z" />
    <glyph glyph-name="period" unicode="." horiz-adv-x="148" 
d="M103 0h-58v176h58v-176z" />
    <glyph glyph-name="slash" unicode="/" horiz-adv-x="311" 
d="M309 800l-236 -800h-57l235 800h58z" />
    <glyph glyph-name="zero" unicode="0" 
d="M268 111q0 -56 -33 -90t-79 -34t-77 32q-34 35 -34 92v578q0 56 33 90t79 34t77 -32q34 -35 34 -92v-578zM210 109v582q0 29 -15.5 45t-38.5 16q-21 0 -37 -16t-16 -45v-582q0 -29 16 -45.5t37 -16.5q22 0 38 16.5t16 45.5z" />
    <glyph glyph-name="one" unicode="1" horiz-adv-x="223" 
d="M178 0h-58v693l-14 -36l-41 -78h-60l115 221h58v-800z" />
    <glyph glyph-name="two" unicode="2" 
d="M268 0h-234l157 580q19 70 19 106q0 65 -53 65q-24 0 -39 -18.5t-15 -43.5v-133h-58v134q0 58 36 92q31 30 77 30q44 0 75 -28q35 -33 35 -91q0 -41 -23 -127l-136 -509h159v-57z" />
    <glyph glyph-name="three" unicode="3" 
d="M278 800l-130 -292h6q50 -5 82 -40t32 -91v-266q0 -57 -32.5 -90.5t-77.5 -33.5q-46 0 -79.5 34t-33.5 90v210h58v-212q0 -29 16 -45.5t38 -16.5t37.5 16.5t15.5 45.5v269q0 72 -70 72q-8 0 -18 -2l-28 -59l-52 21l150 333h-147v57h233z" />
    <glyph glyph-name="four" unicode="4" horiz-adv-x="290" 
d="M280 185h-62v-185h-54v185h-149l130 615h73v-558h62v-57zM164 242v428l-19 -105l-68 -323h87z" />
    <glyph glyph-name="five" unicode="5" 
d="M268 111q0 -57 -32.5 -90.5t-78.5 -33.5t-79 34t-33 90v210h58v-212q0 -29 16 -45.5t38 -16.5t37.5 16.5t15.5 45.5v289q0 24 -14.5 39.5t-38.5 15.5q-44 0 -55 -53l-2 -8l-55 14v394h217v-57h-159v-254q17 24 55 24q46 0 78 -32t32 -85v-285z" />
    <glyph glyph-name="six" unicode="6" 
d="M268 111q0 -56 -33 -90t-79 -34t-77 32q-34 35 -34 92v578q0 56 33 90t79 34t77 -32q34 -35 34 -92v-217h-58v219q0 29 -16 45.5t-38 16.5q-21 0 -37 -16.5t-16 -45.5v-292q17 24 55 24q46 0 78 -32t32 -85v-195zM210 109v199q0 55 -52 55q-24 0 -39.5 -15.5t-15.5 -39.5
v-199q0 -29 16 -45.5t37 -16.5q22 0 38 16.5t16 45.5z" />
    <glyph glyph-name="seven" unicode="7" horiz-adv-x="273" 
d="M253 800l-176 -800h-57l164 743h-159v57h228z" />
    <glyph glyph-name="eight" unicode="8" 
d="M268 111q0 -56 -33 -90t-79 -34t-77 32q-34 35 -34 92v197q0 67 49 95q-18 9 -32 33q-17 29 -17 63v190q0 56 33 90t79 34t77 -32q34 -35 34 -92v-190q0 -66 -49 -96q49 -25 49 -95v-197zM210 494v197q0 29 -15.5 45t-38.5 16q-21 0 -37 -16t-16 -45v-197q0 -29 16 -45.5
t37 -16.5q22 0 38 16.5t16 45.5zM210 109v204q0 29 -15.5 45t-38.5 16q-21 0 -37 -16t-16 -45v-204q0 -29 16 -45.5t37 -16.5q22 0 38 16.5t16 45.5z" />
    <glyph glyph-name="nine" unicode="9" 
d="M268 111q0 -56 -33 -90t-79 -34t-77 32q-34 35 -34 92v217h58v-219q0 -29 16 -45.5t38 -16.5q21 0 37 16.5t16 45.5v292q-17 -24 -55 -24q-46 0 -78 32t-32 85v195q0 56 33 90t79 34t77 -32q34 -35 34 -92v-578zM210 492v199q0 29 -16 45.5t-37 16.5q-22 0 -38 -16.5
t-16 -45.5v-199q0 -55 52 -55q24 0 39.5 15.5t15.5 39.5z" />
    <glyph glyph-name="colon" unicode=":" horiz-adv-x="148" 
d="M103 410h-58v176h58v-176zM103 0h-58v176h58v-176z" />
    <glyph glyph-name="semicolon" unicode=";" horiz-adv-x="145" 
d="M103 410h-58v176h58v-176zM120 176l-84 -309h-42l57 309h69z" />
    <glyph glyph-name="less" unicode="&#x3c;" horiz-adv-x="292" 
d="M275 210l-42 -42l-216 216l216 215l42 -43l-174 -172z" />
    <glyph glyph-name="equal" unicode="=" horiz-adv-x="359" 
d="M314 448h-269v57h269v-57zM314 293h-269v57h269v-57z" />
    <glyph glyph-name="greater" unicode="&#x3e;" horiz-adv-x="292" 
d="M275 384l-216 -216l-42 42l174 174l-174 172l42 43z" />
    <glyph glyph-name="question" unicode="?" 
d="M268 693q0 -39 -21 -131l-81 -348h-59l85 363q18 79 18 109q0 65 -53 65q-24 0 -39 -18.5t-15 -43.5v-133h-58v134q0 58 36 92q31 30 77 30q44 0 75 -28q35 -33 35 -91zM164 0h-55v176h55v-176z" />
    <glyph glyph-name="at" unicode="@" horiz-adv-x="478" 
d="M433 161q0 -77 -55 -125.5t-139 -48.5t-139 48.5t-55 125.5v478q0 77 55 125.5t139 48.5t139 -48.5t55 -125.5v-413h-30l-16 22q-30 -33 -73 -33q-44 0 -74 31t-30 84v147q0 54 27.5 84.5t72.5 30.5q43 0 65 -28v75q0 58 -44 90q-37 26 -92 26t-92 -26q-44 -32 -44 -90
v-475q0 -59 44 -90q37 -26 92 -26t92 26q44 31 44 90v23h58v-26zM375 332v145q0 24 -15.5 39t-38.5 15q-53 0 -53 -54v-146q0 -26 16.5 -40.5t37.5 -14.5q53 0 53 56z" />
    <glyph glyph-name="A" unicode="A" horiz-adv-x="301" 
d="M280 0h-59l-19 169h-104l-20 -169h-57l95 800h69zM197 225l-40 352l-7 102l-8 -102l-39 -352h94z" />
    <glyph glyph-name="B" unicode="B" 
d="M268 109q0 -50 -30 -79.5t-71 -29.5h-122v800h121q42 0 71 -28q31 -31 31 -82v-197q0 -70 -53 -92q53 -24 53 -91v-201zM210 492v187q0 30 -16 47t-39 17h-52v-317h51q23 0 39.5 18t16.5 48zM210 121v182q0 32 -16 50t-39 18h-52v-314h51q24 0 40 17t16 47z" />
    <glyph glyph-name="C" unicode="C" 
d="M268 111q0 -56 -33 -90t-79 -34t-77 32q-34 35 -34 92v578q0 56 33 90t79 34t77 -32q34 -35 34 -92v-217h-58v219q0 29 -15.5 45t-38.5 16q-21 0 -37 -16t-16 -45v-582q0 -29 16 -45.5t37 -16.5q22 0 38 16.5t16 45.5v219h58v-217z" />
    <glyph glyph-name="D" unicode="D" 
d="M268 121q0 -55 -32.5 -88t-77.5 -33h-113v800h113q45 0 76 -31q34 -34 34 -89v-559zM210 121v558q0 30 -16 47t-39 17h-52v-686h52q23 0 39 17t16 47z" />
    <glyph glyph-name="E" unicode="E" horiz-adv-x="273" 
d="M243 0h-198v800h198v-57h-140v-311h101v-57h-101v-318h140v-57z" />
    <glyph glyph-name="F" unicode="F" horiz-adv-x="273" 
d="M243 743h-140v-311h101v-57h-101v-375h-58v800h198v-57z" />
    <glyph glyph-name="G" unicode="G" 
d="M268 0h-32l-14 19q-29 -32 -73 -32t-74 31t-30 84v587q0 56 33 90t79 34t77 -32q34 -35 34 -92v-217h-58v219q0 29 -15.5 45t-38.5 16q-21 0 -37 -16t-16 -45v-589q0 -25 16.5 -39.5t37.5 -14.5q53 0 53 56v252h-67v55h125v-411z" />
    <glyph glyph-name="H" unicode="H" 
d="M268 0h-58v371h-107v-371h-58v800h58v-371h107v371h58v-800z" />
    <glyph glyph-name="I" unicode="I" horiz-adv-x="148" 
d="M103 0h-58v800h58v-800z" />
    <glyph glyph-name="J" unicode="J" 
d="M268 111q0 -57 -32.5 -90.5t-78.5 -33.5t-79 34t-33 90v217h58v-219q0 -29 16 -45.5t38 -16.5q21 0 37 16.5t16 45.5v691h58v-689z" />
    <glyph glyph-name="K" unicode="K" horiz-adv-x="309" 
d="M279 0h-60l-116 392v-392h-58v800h58v-338l108 338h60l-121 -369z" />
    <glyph glyph-name="L" unicode="L" horiz-adv-x="271" 
d="M251 0h-206v800h58v-743h148v-57z" />
    <glyph glyph-name="M" unicode="M" horiz-adv-x="484" 
d="M439 0h-58l1 650l-15 -100l-101 -550h-48l-116 650l1 -98v-552h-58v800h80l117 -655l14 93l103 562h80v-800z" />
    <glyph glyph-name="N" unicode="N" 
d="M268 0h-54l-114 570l3 -69v-501h-58v800h58l111 -556l-4 75v481h58v-800z" />
    <glyph glyph-name="O" unicode="O" 
d="M268 111q0 -56 -33 -90t-79 -34t-77 32q-34 35 -34 92v578q0 56 33 90t79 34t77 -32q34 -35 34 -92v-578zM210 109v582q0 29 -15.5 45t-38.5 16q-21 0 -37 -16t-16 -45v-582q0 -29 16 -45.5t37 -16.5q22 0 38 16.5t16 45.5z" />
    <glyph glyph-name="P" unicode="P" 
d="M268 491q0 -55 -27 -86t-67 -31h-71v-374h-58v800h120q43 0 72 -29q31 -33 31 -89v-191zM210 495v184q0 30 -16 47t-40 17h-51v-312h51q23 0 39.5 17.5t16.5 46.5z" />
    <glyph glyph-name="Q" unicode="Q" 
d="M268 111q0 -77 -60 -111l34 -89h-62l-17 76h-7q-46 0 -77 32q-34 35 -34 92v578q0 56 33 90t79 34t77 -32q34 -35 34 -92v-578zM210 109v582q0 29 -15.5 45t-38.5 16q-21 0 -37 -16t-16 -45v-582q0 -29 16 -45.5t37 -16.5q22 0 38 16.5t16 45.5z" />
    <glyph glyph-name="R" unicode="R" 
d="M268 0h-58v302q0 31 -16.5 49t-39.5 18h-51v-369h-58v800h117q45 0 74 -29q32 -33 32 -89v-191q0 -68 -54 -92q54 -24 54 -97v-302zM210 495v184q0 30 -16 47t-40 17h-51v-315h51q23 0 39.5 18.5t16.5 48.5z" />
    <glyph glyph-name="S" unicode="S" horiz-adv-x="303" 
d="M263 556h-58v133q0 26 -15 44t-40 18q-52 0 -52 -64q0 -46 22 -109l116 -330q26 -74 26 -134q0 -62 -32.5 -94.5t-77.5 -32.5t-77 31q-35 34 -35 91v135h58v-134q0 -26 15 -44t40 -18q52 0 52 64q0 49 -23 114l-117 330q-25 71 -25 129q0 63 34 97q31 30 76 30
q46 0 78 -31q35 -34 35 -91v-134z" />
    <glyph glyph-name="T" unicode="T" horiz-adv-x="292" 
d="M262 743h-87v-743h-58v743h-87v57h232v-57z" />
    <glyph glyph-name="U" unicode="U" 
d="M268 111q0 -56 -33 -90t-79 -34t-77 32q-34 35 -34 92v689h58v-691q0 -29 16 -45.5t37 -16.5q22 0 38 16.5t16 45.5v691h58v-689z" />
    <glyph glyph-name="V" unicode="V" horiz-adv-x="297" 
d="M272 800l-96 -800h-55l-96 800h57l66 -645l7 107l60 538h57z" />
    <glyph glyph-name="W" unicode="W" horiz-adv-x="435" 
d="M410 800l-86 -800h-51l-55 606l-7 -102l-49 -504h-51l-86 800h58l57 -603l7 101l47 502h47l54 -603l7 96l50 507h58z" />
    <glyph glyph-name="X" unicode="X" horiz-adv-x="277" 
d="M263 0h-58l-52 241l-14 93l-15 -93l-52 -241h-58l92 401l-92 399h59l51 -239l15 -96l14 96l51 239h59l-92 -399z" />
    <glyph glyph-name="Y" unicode="Y" horiz-adv-x="299" 
d="M274 800l-99 -422v-378h-52v379l-98 421h56l69 -321l14 74l53 247h57z" />
    <glyph glyph-name="Z" unicode="Z" horiz-adv-x="296" 
d="M266 0h-236l166 743h-157v57h227l-166 -743h166v-57z" />
    <glyph glyph-name="bracketleft" unicode="[" horiz-adv-x="225" 
d="M180 -80h-135v880h135v-57h-77v-766h77v-57z" />
    <glyph glyph-name="backslash" unicode="\" horiz-adv-x="311" 
d="M309 0h-57l-236 800h58z" />
    <glyph glyph-name="bracketright" unicode="]" horiz-adv-x="225" 
d="M180 -80h-135v57h77v766h-77v57h135v-880z" />
    <glyph glyph-name="underscore" unicode="_" horiz-adv-x="243" 
d="M233 -105h-223v58h223v-58z" />
    <glyph glyph-name="grave" unicode="`" horiz-adv-x="316" 
d="M221 640h-41l-99 160h65z" />
    <glyph glyph-name="a" unicode="a" 
d="M268 0h-32l-14 19q-29 -32 -72 -32t-74 30.5t-31 80.5v34q0 65 59 141l78 101q28 36 28 77v24q0 30 -15.5 46.5t-38.5 16.5q-21 0 -37 -16.5t-16 -46.5v-98h-58v98q0 59 35 93q31 31 77 31q45 0 76 -31q35 -35 35 -93v-475zM210 105v232q-4 -10 -22 -40l-53 -69
q-32 -42 -32 -95v-32q0 -25 16.5 -39.5t37.5 -14.5q53 0 53 58z" />
    <glyph glyph-name="b" unicode="b" 
d="M268 102q0 -53 -30 -84t-74 -31t-73 32l-14 -19h-32v800h58v-225q20 24 57 24q45 0 75 -30q33 -33 33 -88v-379zM210 102v382q0 55 -53 55q-23 0 -38.5 -15.5t-15.5 -39.5v-380q0 -56 53 -56q21 0 37.5 14.5t16.5 39.5z" />
    <glyph glyph-name="c" unicode="c" 
d="M268 111q0 -56 -33 -90t-79 -34t-77 32q-34 35 -34 92v364q0 57 34 92q31 32 77 32t79 -34t33 -90v-105h-58v107q0 29 -16 45.5t-38 16.5q-21 0 -37 -16.5t-16 -45.5v-368q0 -29 16 -45.5t37 -16.5q22 0 38 16.5t16 45.5v107h58v-105z" />
    <glyph glyph-name="d" unicode="d" 
d="M268 0h-32l-14 19q-29 -32 -73 -32t-74 31t-30 84v379q0 55 33 88q31 30 75 30q38 0 57 -24v225h58v-800zM210 104v379q0 24 -15.5 39.5t-38.5 15.5t-38 -16t-15 -39v-381q0 -25 16.5 -39.5t37.5 -14.5q53 0 53 56z" />
    <glyph glyph-name="e" unicode="e" 
d="M268 111q0 -56 -33 -90t-79 -34t-77 32q-34 35 -34 92v364q0 56 33 90t79 34t77 -32q34 -35 34 -92v-191h-165v-175q0 -29 16 -45.5t37 -16.5q22 0 38 16.5t16 45.5v106h58v-104zM210 337v140q0 29 -16 45.5t-38 16.5q-21 0 -37 -16.5t-16 -45.5v-140h107z" />
    <glyph glyph-name="f" unicode="f" horiz-adv-x="241" 
d="M221 531h-72v-531h-58v531h-71v55h71v113q0 101 102 101h28v-55h-24q-48 0 -48 -49v-110h72v-55z" />
    <glyph glyph-name="g" unicode="g" horiz-adv-x="347" 
d="M332 529q-64 0 -64 -57v-246q0 -56 -32.5 -89t-79.5 -33h-8q-20 0 -33 -14t-13 -35q0 -22 23 -36q20 -12 44 -12h16q56 0 88 -35q29 -31 29 -75q0 -45 -29 -76q-32 -34 -88 -34h-24q-53 0 -85 33t-32 78q0 52 43 84q-42 25 -42 75q0 49 41 76q-41 32 -41 93v250
q0 57 33 90t79 33q62 0 91 -52q22 39 82 39h2v-57zM210 224v254q0 29 -16 44.5t-38 15.5q-21 0 -37 -15.5t-16 -44.5v-254q0 -29 16 -44.5t37 -15.5q22 0 38 15.5t16 44.5zM244 -103q0 22 -14 37q-17 17 -45 17h-24q-28 0 -43.5 -16t-15.5 -38q0 -21 15.5 -37t43.5 -16h24
q28 0 45 17q14 15 14 36z" />
    <glyph glyph-name="h" unicode="h" 
d="M268 0h-58v484q0 24 -14.5 39t-37.5 15q-24 0 -39.5 -15t-15.5 -39v-484h-58v800h58v-227q20 26 62 26q45 0 74 -31t29 -84v-484z" />
    <glyph glyph-name="i" unicode="i" horiz-adv-x="148" 
d="M103 672h-58v128h58v-128zM103 0h-58v586h58v-586z" />
    <glyph glyph-name="j" unicode="j" horiz-adv-x="148" 
d="M103 672h-58v128h58v-128zM103 -99q0 -54 -31 -84.5t-76 -30.5h-30v57h26q53 0 53 58v685h58v-685z" />
    <glyph glyph-name="k" unicode="k" horiz-adv-x="279" 
d="M279 0h-61l-115 300v-300h-58v800h58v-432l112 218h62l-128 -245z" />
    <glyph glyph-name="l" unicode="l" horiz-adv-x="148" 
d="M103 0h-58v800h58v-800z" />
    <glyph glyph-name="m" unicode="m" horiz-adv-x="464" 
d="M419 0h-58v486q0 52 -50 52t-50 -52v-486h-58v486q0 52 -50 52t-50 -52v-486h-58v586h31l14 -19q29 32 70 32q52 0 80 -39q30 39 78 39q44 0 72.5 -30t28.5 -83v-486z" />
    <glyph glyph-name="n" unicode="n" 
d="M268 0h-58v484q0 25 -17 41q-16 13 -37 13q-53 0 -53 -56v-482h-58v586h31l15 -19q29 32 73 32t74 -31t30 -84v-484z" />
    <glyph glyph-name="o" unicode="o" 
d="M268 111q0 -56 -33 -90t-79 -34t-77 32q-34 35 -34 92v364q0 56 33 90t79 34t77 -32q34 -35 34 -92v-364zM210 109v368q0 29 -15.5 45t-38.5 16q-21 0 -37 -16t-16 -45v-368q0 -29 16 -45.5t37 -16.5q22 0 38 16.5t16 45.5z" />
    <glyph glyph-name="p" unicode="p" 
d="M268 105q0 -54 -31.5 -86t-76.5 -32q-37 0 -57 24v-225h-58v800h32l14 -19q29 32 73 32t74 -31t30 -84v-379zM210 103v381q0 25 -17 41q-16 13 -37 13q-53 0 -53 -56v-379q0 -24 15.5 -39.5t38.5 -15.5t38 16t15 39z" />
    <glyph glyph-name="q" unicode="q" 
d="M268 -214h-58v225q-19 -24 -57 -24q-44 0 -76 32t-32 86v379q0 53 30 84t74 31t73 -32l14 19h32v-800zM210 102v380q0 56 -53 56q-21 0 -37 -13q-17 -16 -17 -41v-382q0 -55 53 -55q23 0 38.5 15.5t15.5 39.5z" />
    <glyph glyph-name="r" unicode="r" 
d="M268 377h-58v107q0 25 -17 41q-16 13 -37 13q-53 0 -53 -56v-482h-58v586h31l15 -19q29 32 73 32t74 -31t30 -84v-107z" />
    <glyph glyph-name="s" unicode="s" 
d="M268 105q0 -57 -32.5 -87.5t-77.5 -30.5q-46 0 -78 30q-35 33 -35 89v100h58v-97q0 -26 15 -44t40 -18q52 0 52 62q0 27 -28 78l-101 181q-36 65 -36 111q0 58 35 91q30 29 75 29t78 -30q35 -34 35 -91v-93h-58v93q0 26 -15 44t-40 18q-53 0 -53 -63q0 -26 30 -81
l101 -181q35 -62 35 -110z" />
    <glyph glyph-name="t" unicode="t" horiz-adv-x="235" 
d="M215 0h-32q-95 0 -95 100v431h-68v55h68v214h58v-214h69v-55h-69v-427q0 -49 48 -49h21v-55z" />
    <glyph glyph-name="u" unicode="u" 
d="M268 0h-31l-15 19q-29 -32 -73 -32t-74 31t-30 84v484h58v-484q0 -25 16.5 -39.5t37.5 -14.5q53 0 53 56v482h58v-586z" />
    <glyph glyph-name="v" unicode="v" horiz-adv-x="287" 
d="M262 586l-91 -586h-55l-91 586h58l49 -351l11 -107l12 106l49 352h58z" />
    <glyph glyph-name="w" unicode="w" horiz-adv-x="435" 
d="M410 586l-86 -586h-51l-45 330l-11 107l-9 -107l-46 -330h-51l-86 586h57l58 -454l8 110l45 344h49l45 -343l8 -111l11 105l47 349h57z" />
    <glyph glyph-name="x" unicode="x" horiz-adv-x="275" 
d="M262 0h-58l-51 164l-16 65l-18 -65l-52 -164h-54l95 289l-94 297h59l47 -155l18 -69l18 69l48 155h56l-93 -287z" />
    <glyph glyph-name="y" unicode="y" horiz-adv-x="287" 
d="M262 586l-108 -694q-7 -47 -38 -76.5t-72 -29.5h-26v55h25q20 0 36 15.5t20 39.5l16 107l-90 583h58l49 -351l11 -107l12 106l49 352h58z" />
    <glyph glyph-name="z" unicode="z" horiz-adv-x="276" 
d="M256 0h-236l164 531h-155v55h227l-164 -531h164v-55z" />
    <glyph glyph-name="braceleft" unicode="{" horiz-adv-x="229" 
d="M185 752q-22 0 -39 -16q-18 -19 -18 -49v-233q0 -67 -53 -91q53 -24 53 -91v-237q0 -30 17 -47.5t39 -17.5v-60q-49 0 -81.5 34.5t-32.5 92.5v224q0 33 -17 52.5t-41 19.5h-9v55h9q24 0 41 19t17 52v226q0 57 33 92t82 35v-60z" />
    <glyph glyph-name="bar" unicode="|" horiz-adv-x="148" 
d="M103 -200h-58v1000h58v-1000z" />
    <glyph glyph-name="braceright" unicode="}" horiz-adv-x="229" 
d="M227 333h-9q-24 0 -41 -19.5t-17 -52.5v-224q0 -58 -32.5 -92.5t-81.5 -34.5v60q22 0 39 17.5t17 47.5v237q0 67 53 91q-53 24 -53 91v233q0 30 -18 49q-17 16 -39 16v60q49 0 82 -35t33 -92v-226q0 -33 17 -52t41 -19h9v-55z" />
    <glyph glyph-name="asciitilde" unicode="~" 
d="M296 374q-51 -56 -92 -56q-23 0 -53.5 20t-42.5 20q-21 0 -52 -34l-39 36q48 56 90 56q27 0 55 -19.5t39 -19.5q22 0 54 33z" />
    <glyph glyph-name="nonbreakingspace" unicode="&#xa0;" horiz-adv-x="148" 
 />
    <glyph glyph-name="exclamdown" unicode="&#xa1;" horiz-adv-x="156" 
d="M106 624h-56v176h56v-176zM114 0h-72l18 586h35z" />
    <glyph glyph-name="cent" unicode="&#xa2;" 
d="M268 199q0 -47 -24 -79t-61 -42v-78h-58v79q-35 10 -56 41q-24 32 -24 79v401q0 47 24 80q21 30 56 40v80h58v-79q37 -10 61 -42t24 -79v-112h-58v114q0 29 -16 45.5t-38 16.5q-21 0 -37 -16.5t-16 -45.5v-405q0 -29 16 -45.5t37 -16.5q22 0 38 16.5t16 45.5v113h58v-111
z" />
    <glyph glyph-name="sterling" unicode="&#xa3;" 
d="M268 0h-223v57h53l-27 318h-26v57h20l-17 202q-2 24 -2 43q0 135 109 135q46 0 78 -31q35 -34 35 -91v-134h-58v133q0 26 -15 44t-40 18q-53 0 -53 -75q0 3 2 -34l19 -210h92v-57h-86l28 -318h111v-57z" />
    <glyph glyph-name="currency" unicode="&#xa4;" 
d="M268 111q0 -56 -33 -90t-79 -34t-77 32q-34 35 -34 92v183h-58v57h58v98h-58v57h58v183q0 56 33 90t79 34t77 -32q34 -35 34 -92v-127h-58v129q0 29 -15.5 45t-38.5 16q-21 0 -37 -16t-16 -45v-185h83v-57h-83v-98h83v-57h-83v-185q0 -29 16 -45.5t37 -16.5q22 0 38 16.5
t16 45.5v129h58v-127z" />
    <glyph glyph-name="yen" unicode="&#xa5;" horiz-adv-x="299" 
d="M274 258h-99v-258h-52v258h-98v57h98v98h-98v57h77l-77 330h56l69 -327l14 80l53 247h57l-77 -330h77v-57h-99v-98h99v-57z" />
    <glyph glyph-name="section" unicode="&#xa7;" 
d="M268 44q0 -57 -32.5 -87.5t-77.5 -30.5q-46 0 -78 30q-35 33 -35 89v100h58v-97q0 -26 15 -44t40 -18q52 0 52 62q0 28 -28 78l-101 181q-36 65 -36 111q0 84 66 111l-30 53q-36 65 -36 111q0 58 35 91q30 29 75 29t78 -30q35 -34 35 -91v-93h-58v93q0 26 -15 44t-40 18
q-53 0 -53 -63q0 -27 30 -81l101 -181q35 -63 35 -110q0 -81 -66 -110l31 -55q35 -63 35 -110zM210 323q0 28 -28 78l-42 76q-38 -9 -38 -61q0 -27 30 -81l40 -72q38 10 38 60z" />
    <glyph glyph-name="dieresis" unicode="&#xa8;" horiz-adv-x="307" 
d="M258 683h-46v117h46v-117zM99 683h-46v117h46v-117z" />
    <glyph glyph-name="copyright" unicode="&#xa9;" horiz-adv-x="478" 
d="M433 161q0 -77 -55 -125.5t-139 -48.5t-139 48.5t-55 125.5v478q0 77 55 125.5t139 48.5t139 -48.5t55 -125.5v-478zM375 164v475q0 58 -44 90q-37 26 -92 26t-92 -26q-44 -32 -44 -90v-475q0 -59 44 -90q37 -26 92 -26t92 26q44 31 44 90zM309 265q0 -31 -21 -51
t-50 -20t-49.5 19.5t-20.5 51.5v270q0 31 21 51.5t50 20.5t49.5 -20t20.5 -52v-115h-58v116q0 14 -13 14q-12 0 -12 -14v-272q0 -15 12 -15q13 0 13 15v116h58v-115z" />
    <glyph glyph-name="guillemotleft" unicode="&#xab;" horiz-adv-x="439" 
d="M422 244l-42 -42l-182 182l182 182l42 -43l-140 -139zM241 244l-42 -42l-182 182l182 182l42 -43l-140 -139z" />
    <glyph glyph-name="minus" unicode="&#xad;" horiz-adv-x="359" 
d="M314 370h-269v58h269v-58z" />
    <glyph glyph-name="minus" unicode="&#x2212;" horiz-adv-x="359" 
d="M314 370h-269v58h269v-58z" />
    <glyph glyph-name="registered" unicode="&#xae;" horiz-adv-x="478" 
d="M433 161q0 -77 -55 -125.5t-139 -48.5t-139 48.5t-55 125.5v478q0 77 55 125.5t139 48.5t139 -48.5t55 -125.5v-478zM375 164v475q0 58 -44 90q-37 26 -92 26t-92 -26q-44 -32 -44 -90v-475q0 -59 44 -90q37 -26 92 -26t92 26q44 31 44 90zM309 200h-57v154q0 18 -13 18
h-14v-172h-57v400h73q29 0 48.5 -18.5t19.5 -50.5v-89q0 -26 -17 -43q17 -17 17 -45v-154zM252 444v86q0 16 -13 16h-14v-119h14q13 0 13 17z" />
    <glyph glyph-name="macron" unicode="&#xaf;" horiz-adv-x="311" 
d="M258 747h-205v53h205v-53z" />
    <glyph glyph-name="macron" unicode="&#x2c9;" horiz-adv-x="311" 
d="M258 747h-205v53h205v-53z" />
    <glyph glyph-name="degree" unicode="&#xb0;" 
d="M268 702q0 -46 -32.5 -79t-78.5 -33t-79 33t-33 79t33 78.5t79 32.5t78.5 -32.5t32.5 -78.5zM211 702q0 22 -16 38t-38 16t-38.5 -16t-16.5 -38t16.5 -38.5t38.5 -16.5t38 16.5t16 38.5z" />
    <glyph glyph-name="acute" unicode="&#xb4;" horiz-adv-x="312" 
d="M237 800l-98 -160h-41l75 160h64z" />
    <glyph glyph-name="paragraph" unicode="&#xb6;" horiz-adv-x="454" 
d="M409 -200h-48v954h-110v-954h-48v610q-86 0 -143 57.5t-57 137.5q0 81 57.5 138t147.5 57h201v-1000z" />
    <glyph glyph-name="periodcentered" unicode="&#xb7;" horiz-adv-x="148" 
d="M103 312h-58v176h58v-176z" />
    <glyph glyph-name="periodcentered" unicode="&#x2219;" horiz-adv-x="148" 
d="M103 312h-58v176h58v-176z" />
    <glyph glyph-name="cedilla" unicode="&#xb8;" horiz-adv-x="307" 
d="M177 -7l-68 -160h-64l91 160h41z" />
    <glyph glyph-name="guillemotright" unicode="&#xbb;" horiz-adv-x="439" 
d="M422 384l-182 -182l-42 42l140 140l-140 139l42 43zM241 384l-182 -182l-42 42l140 140l-140 139l42 43z" />
    <glyph glyph-name="questiondown" unicode="&#xbf;" 
d="M204 624h-55v176h55v-176zM268 110q0 -58 -35 -92q-32 -30 -78 -30q-44 0 -75 28q-35 33 -35 91q0 41 21 131l81 348h59l-85 -363q-18 -77 -18 -109q0 -65 53 -65q24 0 39 18.5t15 43.5v133h58v-134z" />
    <glyph glyph-name="Agrave" unicode="&#xc0;" horiz-adv-x="301" 
d="M280 0h-59l-19 169h-104l-20 -169h-57l95 800h69zM197 225l-40 352l-7 102l-8 -102l-39 -352h94zM207 851h-41l-99 160h65z" />
    <glyph glyph-name="Aacute" unicode="&#xc1;" horiz-adv-x="301" 
d="M280 0h-59l-19 169h-104l-20 -169h-57l95 800h69zM197 225l-40 352l-7 102l-8 -102l-39 -352h94zM223 1011l-98 -160h-41l75 160h64z" />
    <glyph glyph-name="Acircumflex" unicode="&#xc2;" horiz-adv-x="301" 
d="M280 0h-59l-19 169h-104l-20 -169h-57l95 800h69zM197 225l-40 352l-7 102l-8 -102l-39 -352h94zM259 905l-26 -35l-83 83l-82 -83l-27 35l109 107z" />
    <glyph glyph-name="Atilde" unicode="&#xc3;" horiz-adv-x="301" 
d="M280 0h-59l-19 169h-104l-20 -169h-57l95 800h69zM197 225l-40 352l-7 102l-8 -102l-39 -352h94zM262 938q-43 -47 -72 -47q-22 0 -48.5 20t-37.5 20q-13 0 -42 -32l-29 27q41 48 71 48q22 0 48.5 -20t37.5 -20t42 31z" />
    <glyph glyph-name="Adieresis" unicode="&#xc4;" horiz-adv-x="301" 
d="M280 0h-59l-19 169h-104l-20 -169h-57l95 800h69zM197 225l-40 352l-7 102l-8 -102l-39 -352h94zM253 851h-46v117h46v-117zM94 851h-46v117h46v-117z" />
    <glyph glyph-name="Aring" unicode="&#xc5;" horiz-adv-x="301" 
d="M280 0h-59l-19 169h-104l-20 -169h-57l95 800h69zM197 225l-40 352l-7 102l-8 -102l-39 -352h94zM237 960q0 -35 -25.5 -60.5t-60.5 -25.5q-36 0 -61 25.5t-25 60.5q0 36 25 61.5t61 25.5q35 0 60.5 -25.5t25.5 -61.5zM205 960q0 22 -16 38t-38 16t-38 -16t-16 -38
t16 -37.5t38 -15.5t38 15.5t16 37.5z" />
    <glyph glyph-name="AE" unicode="&#xc6;" horiz-adv-x="429" 
d="M399 0h-198v169h-92l-31 -169h-57l143 800h235v-57h-140v-311h101v-57h-101v-318h140v-57zM201 225v513l-24 -165l-61 -348h85z" />
    <glyph glyph-name="Ccedilla" unicode="&#xc7;" 
d="M268 111q0 -56 -33 -90t-79 -34t-77 32q-34 35 -34 92v578q0 56 33 90t79 34t77 -32q34 -35 34 -92v-217h-58v219q0 29 -15.5 45t-38.5 16q-21 0 -37 -16t-16 -45v-582q0 -29 16 -45.5t37 -16.5q22 0 38 16.5t16 45.5v219h58v-217zM177 -7l-68 -160h-64l91 160h41z" />
    <glyph glyph-name="Egrave" unicode="&#xc8;" horiz-adv-x="273" 
d="M199 851h-41l-99 160h65zM243 0h-198v800h198v-57h-140v-311h101v-57h-101v-318h140v-57z" />
    <glyph glyph-name="Eacute" unicode="&#xc9;" horiz-adv-x="273" 
d="M224 1011l-98 -160h-41l75 160h64zM243 0h-198v800h198v-57h-140v-311h101v-57h-101v-318h140v-57z" />
    <glyph glyph-name="Ecircumflex" unicode="&#xca;" horiz-adv-x="273" 
d="M251 905l-26 -35l-83 83l-82 -83l-27 35l109 107zM243 0h-198v800h198v-57h-140v-311h101v-57h-101v-318h140v-57z" />
    <glyph glyph-name="Edieresis" unicode="&#xcb;" horiz-adv-x="273" 
d="M243 0h-198v800h198v-57h-140v-311h101v-57h-101v-318h140v-57zM248 851h-46v117h46v-117zM89 851h-46v117h46v-117z" />
    <glyph glyph-name="Igrave" unicode="&#xcc;" horiz-adv-x="148" 
d="M103 0h-58v800h58v-800zM139 851h-41l-99 160h65z" />
    <glyph glyph-name="Iacute" unicode="&#xcd;" horiz-adv-x="148" 
d="M103 0h-58v800h58v-800zM143 1011l-98 -160h-41l75 160h64z" />
    <glyph glyph-name="Icircumflex" unicode="&#xce;" horiz-adv-x="148" 
d="M103 0h-58v800h58v-800zM183 905l-26 -35l-83 83l-82 -83l-27 35l109 107z" />
    <glyph glyph-name="Idieresis" unicode="&#xcf;" horiz-adv-x="148" 
d="M103 0h-58v800h58v-800zM176 851h-46v117h46v-117zM17 851h-46v117h46v-117z" />
    <glyph glyph-name="Eth" unicode="&#xd0;" horiz-adv-x="318" 
d="M270 121q0 -55 -32.5 -88t-77.5 -33h-113v371l-47 -15v58l47 15v371h113q45 0 76 -31q34 -34 34 -89v-559zM212 121v558q0 30 -16 47t-39 17h-52v-293l47 15v-58l-47 -15v-335h52q23 0 39 17t16 47z" />
    <glyph glyph-name="Ntilde" unicode="&#xd1;" 
d="M268 0h-54l-114 570l3 -69v-501h-58v800h58l111 -556l-4 75v481h58v-800zM270 938q-43 -47 -72 -47q-22 0 -48.5 20t-37.5 20q-13 0 -42 -32l-29 27q41 48 71 48q22 0 48.5 -20t37.5 -20t42 31z" />
    <glyph glyph-name="Ograve" unicode="&#xd2;" 
d="M268 111q0 -56 -33 -90t-79 -34t-77 32q-34 35 -34 92v578q0 56 33 90t79 34t77 -32q34 -35 34 -92v-578zM210 109v582q0 29 -15.5 45t-38.5 16q-21 0 -37 -16t-16 -45v-582q0 -29 16 -45.5t37 -16.5q22 0 38 16.5t16 45.5zM219 850h-41l-99 160h65z" />
    <glyph glyph-name="Oacute" unicode="&#xd3;" 
d="M268 111q0 -56 -33 -90t-79 -34t-77 32q-34 35 -34 92v578q0 56 33 90t79 34t77 -32q34 -35 34 -92v-578zM210 109v582q0 29 -15.5 45t-38.5 16q-21 0 -37 -16t-16 -45v-582q0 -29 16 -45.5t37 -16.5q22 0 38 16.5t16 45.5zM237 1011l-98 -160h-41l75 160h64z" />
    <glyph glyph-name="Ocircumflex" unicode="&#xd4;" 
d="M268 111q0 -56 -33 -90t-79 -34t-77 32q-34 35 -34 92v578q0 56 33 90t79 34t77 -32q34 -35 34 -92v-578zM210 109v582q0 29 -15.5 45t-38.5 16q-21 0 -37 -16t-16 -45v-582q0 -29 16 -45.5t37 -16.5q22 0 38 16.5t16 45.5zM265 905l-26 -35l-83 83l-82 -83l-27 35
l109 107z" />
    <glyph glyph-name="Otilde" unicode="&#xd5;" 
d="M268 111q0 -56 -33 -90t-79 -34t-77 32q-34 35 -34 92v578q0 56 33 90t79 34t77 -32q34 -35 34 -92v-578zM210 109v582q0 29 -15.5 45t-38.5 16q-21 0 -37 -16t-16 -45v-582q0 -29 16 -45.5t37 -16.5q22 0 38 16.5t16 45.5zM270 938q-43 -47 -72 -47q-22 0 -48.5 20
t-37.5 20q-13 0 -42 -32l-29 27q41 48 71 48q22 0 48.5 -20t37.5 -20t42 31z" />
    <glyph glyph-name="Odieresis" unicode="&#xd6;" 
d="M268 111q0 -56 -33 -90t-79 -34t-77 32q-34 35 -34 92v578q0 56 33 90t79 34t77 -32q34 -35 34 -92v-578zM210 109v582q0 29 -15.5 45t-38.5 16q-21 0 -37 -16t-16 -45v-582q0 -29 16 -45.5t37 -16.5q22 0 38 16.5t16 45.5zM259 851h-46v117h46v-117zM100 851h-46v117h46
v-117z" />
    <glyph glyph-name="multiply" unicode="&#xd7;" horiz-adv-x="384" 
d="M364 264l-42 -42l-130 130l-130 -130l-42 42l130 130l-130 129l42 43l130 -130l130 130l42 -43l-130 -129z" />
    <glyph glyph-name="Oslash" unicode="&#xd8;" 
d="M290 800l-24 -84q2 -16 2 -27v-578q0 -56 -33 -90t-79 -34q-58 0 -91 50l-10 -37h-32l24 84q-2 16 -2 27v578q0 56 33 90t79 34q59 0 90 -49l11 36h32zM210 642v49q0 29 -15.5 45t-38.5 16q-21 0 -37 -16t-16 -45v-420zM210 109v424l-107 -371v-53q0 -29 16 -45.5
t37 -16.5q22 0 38 16.5t16 45.5z" />
    <glyph glyph-name="Ugrave" unicode="&#xd9;" 
d="M268 111q0 -56 -33 -90t-79 -34t-77 32q-34 35 -34 92v689h58v-691q0 -29 16 -45.5t37 -16.5q22 0 38 16.5t16 45.5v691h58v-689zM215 850h-41l-99 160h65z" />
    <glyph glyph-name="Uacute" unicode="&#xda;" 
d="M268 111q0 -56 -33 -90t-79 -34t-77 32q-34 35 -34 92v689h58v-691q0 -29 16 -45.5t37 -16.5q22 0 38 16.5t16 45.5v691h58v-689zM234 1011l-98 -160h-41l75 160h64z" />
    <glyph glyph-name="Ucircumflex" unicode="&#xdb;" 
d="M268 111q0 -56 -33 -90t-79 -34t-77 32q-34 35 -34 92v689h58v-691q0 -29 16 -45.5t37 -16.5q22 0 38 16.5t16 45.5v691h58v-689zM265 905l-26 -35l-83 83l-82 -83l-27 35l109 107z" />
    <glyph glyph-name="Udieresis" unicode="&#xdc;" 
d="M268 111q0 -56 -33 -90t-79 -34t-77 32q-34 35 -34 92v689h58v-691q0 -29 16 -45.5t37 -16.5q22 0 38 16.5t16 45.5v691h58v-689zM259 851h-46v117h46v-117zM100 851h-46v117h46v-117z" />
    <glyph glyph-name="Yacute" unicode="&#xdd;" horiz-adv-x="299" 
d="M217 1011l-98 -160h-41l75 160h64zM274 800l-99 -422v-378h-52v379l-98 421h56l69 -321l14 74l53 247h57z" />
    <glyph glyph-name="Thorn" unicode="&#xde;" horiz-adv-x="312" 
d="M267 319q0 -54 -32.5 -86t-77.5 -32h-54v-201h-58v800h58v-202h55q45 0 76 -31q33 -34 33 -89v-159zM210 321v158q0 30 -16.5 47t-40.5 17h-50v-286h50q24 0 40.5 17t16.5 47z" />
    <glyph glyph-name="germandbls" unicode="&#xdf;" horiz-adv-x="521" 
d="M476 105q0 -57 -32.5 -87.5t-77.5 -30.5q-46 0 -78 30q-35 33 -35 89v100h58v-97q0 -26 15 -44t40 -18q52 0 52 62q0 28 -28 78l-101 181q-36 65 -36 111v212q0 29 -16 45.5t-38 16.5q-21 0 -37 -16.5t-16 -45.5v-691h-58v531h-71v55h71v103q0 57 34 92q31 32 77 32
t79 -34t33 -90v-212q0 -29 29 -81l101 -181q35 -63 35 -110z" />
    <glyph glyph-name="agrave" unicode="&#xe0;" 
d="M223 640h-41l-99 160h65zM268 0h-32l-14 19q-29 -32 -72 -32t-74 30.5t-31 80.5v34q0 65 59 141l78 101q28 36 28 77v24q0 30 -15.5 46.5t-38.5 16.5q-21 0 -37 -16.5t-16 -46.5v-98h-58v98q0 59 35 93q31 31 77 31q45 0 76 -31q35 -35 35 -93v-475zM210 105v232
q-4 -10 -22 -40l-53 -69q-32 -42 -32 -95v-32q0 -25 16.5 -39.5t37.5 -14.5q53 0 53 58z" />
    <glyph glyph-name="aacute" unicode="&#xe1;" 
d="M268 0h-32l-14 19q-29 -32 -72 -32t-74 30.5t-31 80.5v34q0 65 59 141l78 101q28 36 28 77v24q0 30 -15.5 46.5t-38.5 16.5q-21 0 -37 -16.5t-16 -46.5v-98h-58v98q0 59 35 93q31 31 77 31q45 0 76 -31q35 -35 35 -93v-475zM210 105v232q-4 -10 -22 -40l-53 -69
q-32 -42 -32 -95v-32q0 -25 16.5 -39.5t37.5 -14.5q53 0 53 58zM239 800l-98 -160h-41l75 160h64z" />
    <glyph glyph-name="acircumflex" unicode="&#xe2;" 
d="M268 0h-32l-14 19q-29 -32 -72 -32t-74 30.5t-31 80.5v34q0 65 59 141l78 101q28 36 28 77v24q0 30 -15.5 46.5t-38.5 16.5q-21 0 -37 -16.5t-16 -46.5v-98h-58v98q0 59 35 93q31 31 77 31q45 0 76 -31q35 -35 35 -93v-475zM210 105v232q-4 -10 -22 -40l-53 -69
q-32 -42 -32 -95v-32q0 -25 16.5 -39.5t37.5 -14.5q53 0 53 58zM265 707l-26 -35l-83 83l-82 -83l-27 35l109 107z" />
    <glyph glyph-name="atilde" unicode="&#xe3;" 
d="M268 0h-32l-14 19q-29 -32 -72 -32t-74 30.5t-31 80.5v34q0 65 59 141l78 101q28 36 28 77v24q0 30 -15.5 46.5t-38.5 16.5q-21 0 -37 -16.5t-16 -46.5v-98h-58v98q0 59 35 93q31 31 77 31q45 0 76 -31q35 -35 35 -93v-475zM210 105v232q-4 -10 -22 -40l-53 -69
q-32 -42 -32 -95v-32q0 -25 16.5 -39.5t37.5 -14.5q53 0 53 58zM271 777q-43 -47 -72 -47q-22 0 -48.5 20t-37.5 20q-13 0 -42 -32l-29 27q41 48 71 48q22 0 48.5 -20t37.5 -20t42 31z" />
    <glyph glyph-name="adieresis" unicode="&#xe4;" 
d="M268 0h-32l-14 19q-29 -32 -72 -32t-74 30.5t-31 80.5v34q0 65 59 141l78 101q28 36 28 77v24q0 30 -15.5 46.5t-38.5 16.5q-21 0 -37 -16.5t-16 -46.5v-98h-58v98q0 59 35 93q31 31 77 31q45 0 76 -31q35 -35 35 -93v-475zM210 105v232q-4 -10 -22 -40l-53 -69
q-32 -42 -32 -95v-32q0 -25 16.5 -39.5t37.5 -14.5q53 0 53 58zM259 683h-46v117h46v-117zM100 683h-46v117h46v-117z" />
    <glyph glyph-name="aring" unicode="&#xe5;" 
d="M268 0h-32l-14 19q-29 -32 -72 -32t-74 30.5t-31 80.5v34q0 65 59 141l78 101q28 36 28 77v24q0 30 -15.5 46.5t-38.5 16.5q-21 0 -37 -16.5t-16 -46.5v-98h-58v98q0 59 35 93q31 31 77 31q45 0 76 -31q35 -35 35 -93v-475zM210 105v232q-4 -10 -22 -40l-53 -69
q-32 -42 -32 -95v-32q0 -25 16.5 -39.5t37.5 -14.5q53 0 53 58zM241 769q0 -35 -25.5 -60.5t-60.5 -25.5q-36 0 -61 25.5t-25 60.5q0 36 25 61.5t61 25.5q35 0 60.5 -25.5t25.5 -61.5zM209 769q0 22 -16 38t-38 16t-38 -16t-16 -38t16 -37.5t38 -15.5t38 15.5t16 37.5z" />
    <glyph glyph-name="ae" unicode="&#xe6;" horiz-adv-x="478" 
d="M433 111q0 -56 -33 -90t-79 -34q-58 0 -87 50q-29 -50 -85 -50q-43 0 -73.5 30t-30.5 81v39q0 54 54 124l79 103q32 42 32 83v28q0 30 -15.5 46.5t-38.5 16.5q-21 0 -37 -16.5t-16 -46.5v-98h-58v98q0 59 35 93q31 31 77 31q55 0 82 -46q28 46 83 46q46 0 77 -32
q34 -35 34 -92v-191h-165v-175q0 -29 16 -45.5t37 -16.5q22 0 38 16.5t16 45.5v106h58v-104zM375 337v140q0 29 -16 45.5t-38 16.5q-21 0 -37 -16.5t-16 -45.5v-140h107zM210 105v228q-4 -8 -22 -36l-53 -69q-32 -42 -32 -95v-32q0 -25 16.5 -39.5t37.5 -14.5q53 0 53 58z
" />
    <glyph glyph-name="ccedilla" unicode="&#xe7;" 
d="M268 111q0 -56 -33 -90t-79 -34t-77 32q-34 35 -34 92v364q0 57 34 92q31 32 77 32t79 -34t33 -90v-105h-58v107q0 29 -16 45.5t-38 16.5q-21 0 -37 -16.5t-16 -45.5v-368q0 -29 16 -45.5t37 -16.5q22 0 38 16.5t16 45.5v107h58v-105zM177 -7l-68 -160h-64l91 160h41z
" />
    <glyph glyph-name="egrave" unicode="&#xe8;" 
d="M221 640h-41l-99 160h65zM268 111q0 -56 -33 -90t-79 -34t-77 32q-34 35 -34 92v364q0 56 33 90t79 34t77 -32q34 -35 34 -92v-191h-165v-175q0 -29 16 -45.5t37 -16.5q22 0 38 16.5t16 45.5v106h58v-104zM210 337v140q0 29 -16 45.5t-38 16.5q-21 0 -37 -16.5t-16 -45.5
v-140h107z" />
    <glyph glyph-name="eacute" unicode="&#xe9;" 
d="M268 111q0 -56 -33 -90t-79 -34t-77 32q-34 35 -34 92v364q0 56 33 90t79 34t77 -32q34 -35 34 -92v-191h-165v-175q0 -29 16 -45.5t37 -16.5q22 0 38 16.5t16 45.5v106h58v-104zM210 337v140q0 29 -16 45.5t-38 16.5q-21 0 -37 -16.5t-16 -45.5v-140h107zM237 800
l-98 -160h-41l75 160h64z" />
    <glyph glyph-name="ecircumflex" unicode="&#xea;" 
d="M268 111q0 -56 -33 -90t-79 -34t-77 32q-34 35 -34 92v364q0 56 33 90t79 34t77 -32q34 -35 34 -92v-191h-165v-175q0 -29 16 -45.5t37 -16.5q22 0 38 16.5t16 45.5v106h58v-104zM210 337v140q0 29 -16 45.5t-38 16.5q-21 0 -37 -16.5t-16 -45.5v-140h107zM264 707
l-26 -35l-83 83l-82 -83l-27 35l109 107z" />
    <glyph glyph-name="edieresis" unicode="&#xeb;" 
d="M268 111q0 -56 -33 -90t-79 -34t-77 32q-34 35 -34 92v364q0 56 33 90t79 34t77 -32q34 -35 34 -92v-191h-165v-175q0 -29 16 -45.5t37 -16.5q22 0 38 16.5t16 45.5v106h58v-104zM210 337v140q0 29 -16 45.5t-38 16.5q-21 0 -37 -16.5t-16 -45.5v-140h107zM259 683h-46
v117h46v-117zM100 683h-46v117h46v-117z" />
    <glyph glyph-name="igrave" unicode="&#xec;" horiz-adv-x="148" 
d="M134 640h-41l-99 160h65zM103 0h-58v586h58v-586z" />
    <glyph glyph-name="iacute" unicode="&#xed;" horiz-adv-x="148" 
d="M147 800l-98 -160h-41l75 160h64zM103 0h-58v586h58v-586z" />
    <glyph glyph-name="icircumflex" unicode="&#xee;" horiz-adv-x="148" 
d="M183 707l-26 -35l-83 83l-82 -83l-27 35l109 107zM103 0h-58v586h58v-586z" />
    <glyph glyph-name="idieresis" unicode="&#xef;" horiz-adv-x="148" 
d="M176 683h-46v117h46v-117zM17 683h-46v117h46v-117zM103 0h-58v586h58v-586z" />
    <glyph glyph-name="eth" unicode="&#xf0;" horiz-adv-x="311" 
d="M268 111q0 -56 -33 -90t-79 -34t-77 32q-34 35 -34 92v334q0 50 30.5 86.5t79.5 36.5q8 0 20 -2l-32 70l-73 -24v59l57 17l-46 112h60l39 -91l77 24v-59l-60 -19l47 -121q24 -59 24 -93v-330zM210 109v338q0 29 -16 45.5t-38 16.5q-21 0 -37 -16.5t-16 -45.5v-338
q0 -29 16 -45.5t37 -16.5q22 0 38 16.5t16 45.5z" />
    <glyph glyph-name="ntilde" unicode="&#xf1;" 
d="M268 0h-58v484q0 25 -17 41q-16 13 -37 13q-53 0 -53 -56v-482h-58v586h31l15 -19q29 32 73 32t74 -31t30 -84v-484zM269 777q-43 -47 -72 -47q-22 0 -48.5 20t-37.5 20q-13 0 -42 -32l-29 27q41 48 71 48q22 0 48.5 -20t37.5 -20t42 31z" />
    <glyph glyph-name="ograve" unicode="&#xf2;" 
d="M221 640h-41l-99 160h65zM268 111q0 -56 -33 -90t-79 -34t-77 32q-34 35 -34 92v364q0 56 33 90t79 34t77 -32q34 -35 34 -92v-364zM210 109v368q0 29 -15.5 45t-38.5 16q-21 0 -37 -16t-16 -45v-368q0 -29 16 -45.5t37 -16.5q22 0 38 16.5t16 45.5z" />
    <glyph glyph-name="oacute" unicode="&#xf3;" 
d="M268 111q0 -56 -33 -90t-79 -34t-77 32q-34 35 -34 92v364q0 56 33 90t79 34t77 -32q34 -35 34 -92v-364zM210 109v368q0 29 -15.5 45t-38.5 16q-21 0 -37 -16t-16 -45v-368q0 -29 16 -45.5t37 -16.5q22 0 38 16.5t16 45.5zM237 800l-98 -160h-41l75 160h64z" />
    <glyph glyph-name="ocircumflex" unicode="&#xf4;" 
d="M268 111q0 -56 -33 -90t-79 -34t-77 32q-34 35 -34 92v364q0 56 33 90t79 34t77 -32q34 -35 34 -92v-364zM210 109v368q0 29 -15.5 45t-38.5 16q-21 0 -37 -16t-16 -45v-368q0 -29 16 -45.5t37 -16.5q22 0 38 16.5t16 45.5zM265 707l-26 -35l-83 83l-82 -83l-27 35
l109 107z" />
    <glyph glyph-name="otilde" unicode="&#xf5;" 
d="M268 111q0 -56 -33 -90t-79 -34t-77 32q-34 35 -34 92v364q0 56 33 90t79 34t77 -32q34 -35 34 -92v-364zM210 109v368q0 29 -15.5 45t-38.5 16q-21 0 -37 -16t-16 -45v-368q0 -29 16 -45.5t37 -16.5q22 0 38 16.5t16 45.5zM269 777q-43 -47 -72 -47q-22 0 -48.5 20
t-37.5 20q-13 0 -42 -32l-29 27q41 48 71 48q22 0 48.5 -20t37.5 -20t42 31z" />
    <glyph glyph-name="odieresis" unicode="&#xf6;" 
d="M268 111q0 -56 -33 -90t-79 -34t-77 32q-34 35 -34 92v364q0 56 33 90t79 34t77 -32q34 -35 34 -92v-364zM210 109v368q0 29 -15.5 45t-38.5 16q-21 0 -37 -16t-16 -45v-368q0 -29 16 -45.5t37 -16.5q22 0 38 16.5t16 45.5zM259 683h-46v117h46v-117zM100 683h-46v117h46
v-117z" />
    <glyph glyph-name="divide" unicode="&#xf7;" horiz-adv-x="359" 
d="M209 488h-59v88h59v-88zM314 370h-269v58h269v-58zM209 222h-59v88h59v-88z" />
    <glyph glyph-name="oslash" unicode="&#xf8;" 
d="M291 586l-28 -71q5 -20 5 -40v-364q0 -56 -33 -90t-79 -34q-55 0 -88 45l-12 -32h-34l28 71q-5 20 -5 40v364q0 56 33 90t79 34q56 0 87 -45l13 32h34zM210 477q0 29 -15.5 45t-38.5 16q-21 0 -37 -16t-16 -45v-278zM210 109v279l-107 -279q0 -29 16 -45.5t37 -16.5
q22 0 38 16.5t16 45.5z" />
    <glyph glyph-name="ugrave" unicode="&#xf9;" 
d="M221 640h-41l-99 160h65zM268 0h-31l-15 19q-29 -32 -73 -32t-74 31t-30 84v484h58v-484q0 -25 16.5 -39.5t37.5 -14.5q53 0 53 56v482h58v-586z" />
    <glyph glyph-name="uacute" unicode="&#xfa;" 
d="M268 0h-31l-15 19q-29 -32 -73 -32t-74 31t-30 84v484h58v-484q0 -25 16.5 -39.5t37.5 -14.5q53 0 53 56v482h58v-586zM237 800l-98 -160h-41l75 160h64z" />
    <glyph glyph-name="ucircumflex" unicode="&#xfb;" 
d="M268 0h-31l-15 19q-29 -32 -73 -32t-74 31t-30 84v484h58v-484q0 -25 16.5 -39.5t37.5 -14.5q53 0 53 56v482h58v-586zM265 707l-26 -35l-83 83l-82 -83l-27 35l109 107z" />
    <glyph glyph-name="udieresis" unicode="&#xfc;" 
d="M268 0h-31l-15 19q-29 -32 -73 -32t-74 31t-30 84v484h58v-484q0 -25 16.5 -39.5t37.5 -14.5q53 0 53 56v482h58v-586zM259 683h-46v117h46v-117zM100 683h-46v117h46v-117z" />
    <glyph glyph-name="yacute" unicode="&#xfd;" horiz-adv-x="287" 
d="M262 586l-108 -694q-7 -47 -38 -76.5t-72 -29.5h-26v55h25q20 0 36 15.5t20 39.5l16 107l-90 583h58l49 -351l11 -107l12 106l49 352h58zM211 800l-98 -160h-41l75 160h64z" />
    <glyph glyph-name="thorn" unicode="&#xfe;" horiz-adv-x="312" 
d="M268 106q0 -51 -31.5 -83t-76.5 -32q-41 0 -57 24v-225h-58v1010h58v-229q16 24 57 24q45 0 76.5 -32t31.5 -83v-374zM210 106v374q0 25 -15 41t-40 16q-22 0 -37 -14t-15 -35v-391q0 -21 15 -35t37 -14q25 0 40 16t15 42z" />
    <glyph glyph-name="ydieresis" unicode="&#xff;" horiz-adv-x="287" 
d="M262 586l-108 -694q-7 -47 -38 -76.5t-72 -29.5h-26v55h25q20 0 36 15.5t20 39.5l16 107l-90 583h58l49 -351l11 -107l12 106l49 352h58zM247 683h-46v117h46v-117zM88 683h-46v117h46v-117z" />
    <glyph glyph-name="dotlessi" unicode="&#x131;" horiz-adv-x="148" 
d="M103 0h-58v586h58v-586z" />
    <glyph glyph-name="Lslash" unicode="&#x141;" horiz-adv-x="273" 
d="M253 0h-206v371l-47 -15v58l47 15v371h58v-350l47 15v-58l-47 -15v-335h148v-57z" />
    <glyph glyph-name="lslash" unicode="&#x142;" horiz-adv-x="152" 
d="M152 407l-47 -15v-392h-58v371l-47 -15v58l47 15v371h58v-350l47 15v-58z" />
    <glyph glyph-name="OE" unicode="&#x152;" horiz-adv-x="438" 
d="M408 0h-251q-46 0 -79 33t-33 90v556q0 57 34 90q31 31 77 31h252v-57h-140v-311h101v-57h-101v-318h140v-57zM210 57v686h-53q-22 0 -38 -16t-16 -45v-564q0 -29 16 -45t38 -16h53z" />
    <glyph glyph-name="oe" unicode="&#x153;" horiz-adv-x="478" 
d="M433 111q0 -56 -33 -90t-79 -34q-55 0 -82 46q-28 -46 -83 -46q-46 0 -77 32q-34 35 -34 92v364q0 56 33 90t79 34q54 0 82 -46q27 46 82 46q46 0 78 -32q34 -35 34 -92v-191h-165v-175q0 -29 16 -45.5t37 -16.5q22 0 38 16.5t16 45.5v106h58v-104zM375 337v140
q0 29 -16 45.5t-38 16.5q-21 0 -37 -16.5t-16 -45.5v-140h107zM210 109v368q0 29 -15.5 45t-38.5 16q-21 0 -37 -16t-16 -45v-368q0 -29 16 -45.5t37 -16.5q22 0 38 16.5t16 45.5z" />
    <glyph glyph-name="Scaron" unicode="&#x160;" horiz-adv-x="303" 
d="M261 977l-109 -107l-109 107l26 35l83 -83l82 83zM263 556h-58v133q0 26 -15 44t-40 18q-52 0 -52 -64q0 -46 22 -109l116 -330q26 -74 26 -134q0 -62 -32.5 -94.5t-77.5 -32.5t-77 31q-35 34 -35 91v135h58v-134q0 -26 15 -44t40 -18q52 0 52 64q0 49 -23 114l-117 330
q-25 71 -25 129q0 63 34 97q31 30 76 30q46 0 78 -31q35 -34 35 -91v-134z" />
    <glyph glyph-name="scaron" unicode="&#x161;" 
d="M264 779l-109 -107l-109 107l26 35l83 -83l82 83zM268 105q0 -57 -32.5 -87.5t-77.5 -30.5q-46 0 -78 30q-35 33 -35 89v100h58v-97q0 -26 15 -44t40 -18q52 0 52 62q0 27 -28 78l-101 181q-36 65 -36 111q0 58 35 91q30 29 75 29t78 -30q35 -34 35 -91v-93h-58v93
q0 26 -15 44t-40 18q-53 0 -53 -63q0 -26 30 -81l101 -181q35 -62 35 -110z" />
    <glyph glyph-name="Ydieresis" unicode="&#x178;" horiz-adv-x="299" 
d="M250 851h-46v117h46v-117zM91 851h-46v117h46v-117zM274 800l-99 -422v-378h-52v379l-98 421h56l69 -321l14 74l53 247h57z" />
    <glyph glyph-name="Zcaron" unicode="&#x17d;" horiz-adv-x="264" 
d="M266 0h-236l166 743h-157v57h227l-166 -743h166v-57zM256 977l-109 -107l-109 107l26 35l83 -83l82 83z" />
    <glyph glyph-name="zcaron" unicode="&#x17e;" horiz-adv-x="276" 
d="M256 0h-236l164 531h-155v55h227l-164 -531h164v-55zM250 779l-109 -107l-109 107l26 35l83 -83l82 83z" />
    <glyph glyph-name="circumflex" unicode="&#x2c6;" horiz-adv-x="307" 
d="M264 707l-26 -35l-83 83l-82 -83l-27 35l109 107z" />
    <glyph glyph-name="caron" unicode="&#x2c7;" horiz-adv-x="307" 
d="M264 779l-109 -107l-109 107l26 35l83 -83l82 83z" />
    <glyph glyph-name="breve" unicode="&#x2d8;" horiz-adv-x="311" 
d="M269 800q0 -47 -33 -80.5t-80 -33.5t-80.5 33.5t-33.5 80.5h45q0 -28 20.5 -48.5t48.5 -20.5t48 20.5t20 48.5h45z" />
    <glyph glyph-name="dotaccent" unicode="&#x2d9;" horiz-adv-x="307" 
d="M178 683h-45v117h45v-117z" />
    <glyph glyph-name="ring" unicode="&#x2da;" horiz-adv-x="307" 
d="M240 769q0 -35 -25.5 -60.5t-60.5 -25.5q-36 0 -61 25.5t-25 60.5q0 36 25 61.5t61 25.5q35 0 60.5 -25.5t25.5 -61.5zM208 769q0 22 -16 38t-38 16t-38 -16t-16 -38t16 -37.5t38 -15.5t38 15.5t16 37.5z" />
    <glyph glyph-name="ogonek" unicode="&#x2db;" horiz-adv-x="311" 
d="M263 -167h-64l-68 160h41z" />
    <glyph glyph-name="tilde" unicode="&#x2dc;" horiz-adv-x="307" 
d="M269 777q-43 -47 -72 -47q-22 0 -48.5 20t-37.5 20q-13 0 -42 -32l-29 27q41 48 71 48q22 0 48.5 -20t37.5 -20t42 31z" />
    <glyph glyph-name="hungarumlaut" unicode="&#x2dd;" horiz-adv-x="311" 
d="M265 800l-45 -117h-48l45 117h48zM138 800l-45 -117h-47l45 117h47z" />
    <glyph glyph-name="endash" unicode="&#x2013;" horiz-adv-x="500" 
d="M500 371h-500v58h500v-58z" />
    <glyph glyph-name="emdash" unicode="&#x2014;" horiz-adv-x="1000" 
d="M1000 371h-1000v58h1000v-58z" />
    <glyph glyph-name="quoteleft" unicode="&#x2018;" horiz-adv-x="126" 
d="M126 800l-57 -309h-69l84 309h42z" />
    <glyph glyph-name="quoteright" unicode="&#x2019;" horiz-adv-x="126" 
d="M126 800l-84 -309h-42l57 309h69z" />
    <glyph glyph-name="quotesinglbase" unicode="&#x201a;" horiz-adv-x="106" 
d="M106 176l-84 -309h-42l57 309h69z" />
    <glyph glyph-name="quotedblleft" unicode="&#x201c;" horiz-adv-x="262" 
d="M262 800l-57 -309h-69l84 309h42zM126 800l-57 -309h-69l84 309h42z" />
    <glyph glyph-name="quotedblright" unicode="&#x201d;" horiz-adv-x="262" 
d="M262 800l-84 -309h-42l56 309h70zM126 800l-84 -309h-42l57 309h69z" />
    <glyph glyph-name="quotedblbase" unicode="&#x201e;" horiz-adv-x="242" 
d="M242 176l-84 -309h-42l57 309h69zM106 176l-84 -309h-42l57 309h69z" />
    <glyph glyph-name="dagger" unicode="&#x2020;" horiz-adv-x="282" 
d="M258 531h-88v-601h-58v601h-88v55h88v150h58v-150h88v-55z" />
    <glyph glyph-name="daggerdbl" unicode="&#x2021;" horiz-adv-x="282" 
d="M258 80h-88v-150h-58v150h-88v55h88v396h-88v55h88v150h58v-150h88v-55h-88v-396h88v-55z" />
    <glyph glyph-name="bullet" unicode="&#x2022;" 
d="M268 400q0 -46 -32.5 -79t-78.5 -33t-79 33t-33 79t33 78.5t79 32.5t78.5 -32.5t32.5 -78.5z" />
    <glyph glyph-name="perthousand" unicode="&#x2030;" horiz-adv-x="693" 
d="M268 576q0 -56 -33 -90t-79 -34t-77 32q-34 35 -34 92v113q0 56 33 90t79 34t77 -32q34 -35 34 -92v-113zM648 111q0 -56 -33 -90t-79 -34t-77 32q-34 35 -34 92v113q0 56 33 90t79 34t77 -32q34 -35 34 -92v-113zM380 420l-320 -92l-16 53l320 92zM378 111
q0 -56 -33 -90t-79 -34t-77 32q-34 35 -34 92v113q0 56 33 90t79 34t77 -32q34 -35 34 -92v-113zM210 574v117q0 29 -15.5 45t-38.5 16q-21 0 -37 -16t-16 -45v-117q0 -29 16 -45.5t37 -16.5q22 0 38 16.5t16 45.5zM590 109v117q0 29 -15.5 45t-38.5 16q-21 0 -37 -16
t-16 -45v-117q0 -29 16 -45.5t37 -16.5q22 0 38 16.5t16 45.5zM320 109v117q0 29 -15.5 45t-38.5 16q-21 0 -37 -16t-16 -45v-117q0 -29 16 -45.5t37 -16.5q22 0 38 16.5t16 45.5z" />
    <glyph glyph-name="guilsinglleft" unicode="&#x2039;" horiz-adv-x="258" 
d="M241 244l-42 -42l-182 182l182 182l42 -43l-140 -139z" />
    <glyph glyph-name="guilsinglright" unicode="&#x203a;" horiz-adv-x="258" 
d="M241 384l-182 -182l-42 42l140 140l-140 139l42 43z" />
    <glyph glyph-name="trademark" unicode="&#x2122;" horiz-adv-x="552" 
d="M501 422h-52v162l3 99h-2l-16 -100l-29 -161h-45l-30 161l-16 100h-2l3 -99v-162h-52v378h65l39 -205l15 -91l15 91l38 205h66v-378zM235 749h-66v-327h-52v327h-66v51h184v-51z" />
    <glyph glyph-name="fi" unicode="&#xf001;" horiz-adv-x="339" 
d="M294 0h-58v531h-90v-531h-58v531h-71v55h71v113q0 101 102 101h104v-55h-100q-48 0 -48 -49v-110h148v-586z" />
    <glyph glyph-name="fl" unicode="&#xf002;" horiz-adv-x="339" 
d="M294 0h-58v745h-42q-48 0 -48 -49v-696h-58v531h-71v55h71v113q0 101 102 101h104v-800z" />
    </font>
</defs>
</svg>
