<?xml version="1.0" standalone="no"?>
<!DOCTYPE svg PUBLIC "-//W3C//DTD SVG 1.1//EN" "http://www.w3.org/Graphics/SVG/1.1/DTD/svg11.dtd" >
<svg xmlns="http://www.w3.org/2000/svg" xmlns:xlink="http://www.w3.org/1999/xlink" version="1.1">
<metadata>
Created by FontForge 20170731 at Wed Jan 21 14:11:54 2004
 By Aleksey,,,
(c) 2003 Gareth Hague / Alias
</metadata>
<defs>
<font id="CactusLight" horiz-adv-x="313" >
  <font-face 
    font-family="CactusLight"
    font-weight="400"
    font-stretch="normal"
    units-per-em="1000"
    panose-1="0 0 4 0 0 0 0 0 0 0"
    ascent="800"
    descent="-200"
    x-height="586"
    cap-height="800"
    bbox="-29 -214 1000 1047"
    underline-thickness="20"
    underline-position="-163"
    unicode-range="U+0020-F002"
  />
<missing-glyph horiz-adv-x="500" 
d="M63 0v800h375v-800h-375zM125 63h250v675h-250v-675z" />
    <glyph glyph-name=".notdef" horiz-adv-x="500" 
d="M63 0v800h375v-800h-375zM125 63h250v675h-250v-675z" />
    <glyph glyph-name=".null" horiz-adv-x="0" 
 />
    <glyph glyph-name="nonmarkingreturn" horiz-adv-x="148" 
 />
    <glyph glyph-name="space" unicode=" " horiz-adv-x="148" 
 />
    <glyph glyph-name="exclam" unicode="!" horiz-adv-x="148" 
d="M92 800l-9 -586h-18l-9 586h36zM88 0h-28v176h28v-176z" />
    <glyph glyph-name="quotedbl" unicode="&#x22;" horiz-adv-x="268" 
d="M212 800l-9 -309h-18l-9 309h36zM92 800l-9 -309h-18l-9 309h36z" />
    <glyph glyph-name="numbersign" unicode="#" horiz-adv-x="426" 
d="M406 369l-7 -25h-98l-28 -103h98l-7 -25h-97l-58 -216h-28l57 216h-91l-58 -216h-28l57 216h-98l7 25h98l27 103h-98l7 25h98l57 217h29l-58 -217h92l57 217h29l-58 -217h99zM272 344h-91l-28 -103h92z" />
    <glyph glyph-name="dollar" unicode="$" 
d="M253 182q0 -95 -85 -105v-77h-28v79q-34 6 -56 31q-24 29 -24 73v93h28v-93q0 -32 19 -55t51 -23q67 0 67 79q0 49 -27 103l-111 222q-27 54 -27 108q0 93 80 104v79h28v-79q36 -4 59 -30q26 -29 26 -75v-87h-28v87q0 32 -19 55t-51 23q-67 0 -67 -79q0 -46 25 -96
l111 -222q29 -58 29 -115z" />
    <glyph glyph-name="percent" unicode="%" horiz-adv-x="423" 
d="M253 550q0 -51 -29 -80t-68 -29t-66 27q-30 30 -30 82v154q0 51 31 82q27 27 66 27t66 -27q30 -30 30 -82v-154zM359 463l-286 -152l-12 24l286 152zM363 96q0 -51 -29 -80t-68 -29t-66 27q-30 30 -30 82v154q0 51 31 82q27 27 66 27t66 -27q30 -30 30 -82v-154zM225 549
v156q0 38 -20.5 59t-48.5 21t-48 -21t-20 -59v-156q0 -38 20 -59t48 -21t48.5 21t20.5 59zM335 95v156q0 38 -20.5 59t-48.5 21t-48 -21t-20 -59v-156q0 -38 20 -59t48 -21t48.5 21t20.5 59z" />
    <glyph glyph-name="ampersand" unicode="&#x26;" horiz-adv-x="346" 
d="M306 0h-15q-50 0 -76 39q-23 -53 -76 -53q-33 0 -55 23q-24 27 -24 74v9q0 52 23 125l48 152l-53 221q-18 75 -18 117q0 50 30 80q27 26 67 26q39 0 66 -26q30 -30 30 -80q0 -43 -22 -112l-72 -227l60 -250l61 145l25 -10l-75 -179q14 -49 61 -49h15v-25zM225 705
q0 38 -21 59t-49 21t-46 -20q-21 -22 -21 -60q0 -41 16 -108l43 -180l58 185q20 64 20 103zM202 76l-58 246l-35 -112q-21 -67 -21 -116v-12q0 -68 51 -68q37 0 56 45z" />
    <glyph glyph-name="quotesingle" unicode="'" horiz-adv-x="177" 
d="M92 800l-9 -309h-18l-9 309h36z" />
    <glyph glyph-name="parenleft" unicode="(" horiz-adv-x="217" 
d="M157 785q-28 0 -47 -20q-22 -23 -22 -60v-687q0 -38 20 -59t48 -21v-28q-39 0 -66 27q-30 30 -30 82v685q0 51 31 82q27 27 66 27v-28z" />
    <glyph glyph-name="parenright" unicode=")" horiz-adv-x="217" 
d="M157 19q0 -52 -28.5 -80.5t-67.5 -28.5v28q28 0 48 21t20 59v687q0 37 -22 60q-19 20 -47 20v28q39 0 67 -27q30 -31 30 -82v-685z" />
    <glyph glyph-name="asterisk" unicode="*" horiz-adv-x="395" 
d="M381 656l-168 -46l109 -135l-29 -21l-95 145l-94 -144l-29 21l108 134l-168 46l12 34l162 -62l-9 172h36l-9 -172l162 62z" />
    <glyph glyph-name="plus" unicode="+" 
d="M273 388h-103v-159h-28v159h-102v25h102v158h28v-158h103v-25z" />
    <glyph glyph-name="comma" unicode="," horiz-adv-x="148" 
d="M92 176l-64 -309h-28l60 309h32z" />
    <glyph glyph-name="hyphen" unicode="-" 
d="M253 388h-193v25h193v-25z" />
    <glyph glyph-name="hyphen" unicode="&#x2010;" 
d="M253 388h-193v25h193v-25z" />
    <glyph glyph-name="period" unicode="." horiz-adv-x="148" 
d="M88 0h-28v176h28v-176z" />
    <glyph glyph-name="slash" unicode="/" horiz-adv-x="261" 
d="M261 800l-213 -800h-28l212 800h29z" />
    <glyph glyph-name="zero" unicode="0" 
d="M253 96q0 -51 -29 -80t-68 -29t-66 27q-30 30 -30 82v608q0 51 31 82q27 27 66 27t66 -27q30 -30 30 -82v-608zM225 95v610q0 38 -20.5 59t-48.5 21t-48 -21t-20 -59v-610q0 -38 20 -59t48 -21t48.5 21t20.5 59z" />
    <glyph glyph-name="one" unicode="1" horiz-adv-x="239" 
d="M179 0h-28v756l-29 -60l-81 -140h-31l141 244h28v-800z" />
    <glyph glyph-name="two" unicode="2" 
d="M253 0h-205l158 599q19 72 19 106q0 79 -67 79q-32 0 -51 -23t-19 -55v-150h-28v150q0 50 31 80q27 26 67 26q39 0 65 -25q30 -28 30 -80q0 -38 -21 -118l-148 -564h169v-25z" />
    <glyph glyph-name="three" unicode="3" 
d="M264 800l-135 -296h6q52 0 85 -33t33 -89v-286q0 -52 -28.5 -80.5t-67.5 -28.5t-66 28q-31 30 -31 81v222h28v-223q0 -38 20.5 -59t48.5 -21t48 21t20 59v288q0 46 -26 72q-25 23 -66 23q-11 0 -17 -1l-36 -79l-24 10l168 367h-164v25h204z" />
    <glyph glyph-name="four" unicode="4" horiz-adv-x="263" 
d="M253 194h-67v-194h-28v194h-138l138 606h28v-581h67v-25zM158 219v482l-23 -114l-84 -368h107z" />
    <glyph glyph-name="five" unicode="5" 
d="M253 96q0 -52 -28.5 -80.5t-67.5 -28.5t-66 28q-31 30 -31 81v222h28v-223q0 -38 20.5 -59t48.5 -21t48 21t20 59v316q0 31 -18.5 50.5t-48.5 19.5q-31 0 -50.5 -20t-19.5 -50v-8h-28v397h193v-25h-165v-300q22 34 71 34q39 0 66.5 -27t27.5 -72v-314z" />
    <glyph glyph-name="six" unicode="6" 
d="M253 96q0 -51 -29 -80t-68 -29t-66 27q-30 30 -30 82v608q0 51 31 82q27 27 66 27t66 -27q30 -30 30 -82v-232h-28v233q0 38 -20.5 59t-48.5 21t-48 -21t-20 -59v-324q22 34 71 34q39 0 66.5 -27t27.5 -72v-220zM225 95v222q0 31 -18.5 50.5t-48.5 19.5q-31 0 -50.5 -20
t-19.5 -50v-222q0 -38 20 -59t48 -21t48.5 21t20.5 59z" />
    <glyph glyph-name="seven" unicode="7" horiz-adv-x="251" 
d="M241 800l-193 -800h-28l186 775h-176v25h211z" />
    <glyph glyph-name="eight" unicode="8" 
d="M253 96q0 -51 -29 -80t-68 -29t-66 27q-30 30 -30 82v210q0 70 54 95q-54 23 -54 95v208q0 51 31 82q27 27 66 27t66 -27q30 -30 30 -82v-208q0 -70 -54 -95q54 -23 54 -95v-210zM225 493v212q0 38 -20.5 59t-48.5 21t-48 -21t-20 -59v-212q0 -38 20 -59t48 -21t48.5 21
t20.5 59zM225 95v214q0 38 -20.5 59t-48.5 21t-48 -21t-20 -59v-214q0 -38 20 -59t48 -21t48.5 21t20.5 59z" />
    <glyph glyph-name="nine" unicode="9" 
d="M253 96q0 -51 -29 -80t-68 -29t-66 27q-30 30 -30 82v232h28v-233q0 -38 20.5 -59t48.5 -21t48 21t20 59v324q-22 -34 -71 -34q-39 0 -66.5 27t-27.5 72v220q0 51 31 82q27 27 66 27t66 -27q30 -30 30 -82v-608zM225 483v222q0 38 -20 59t-48 21t-48.5 -21t-20.5 -59
v-222q0 -31 18.5 -50.5t48.5 -19.5q31 0 50.5 20t19.5 50z" />
    <glyph glyph-name="colon" unicode=":" horiz-adv-x="148" 
d="M88 410h-28v176h28v-176zM88 0h-28v176h28v-176z" />
    <glyph glyph-name="semicolon" unicode=";" horiz-adv-x="148" 
d="M88 410h-28v176h28v-176zM92 176l-64 -309h-28l60 309h32z" />
    <glyph glyph-name="less" unicode="&#x3c;" horiz-adv-x="276" 
d="M256 188l-20 -20l-216 216l216 215l20 -21l-196 -194z" />
    <glyph glyph-name="equal" unicode="=" 
d="M273 452h-233v25h233v-25zM273 324h-233v25h233v-25z" />
    <glyph glyph-name="greater" unicode="&#x3e;" horiz-adv-x="276" 
d="M256 384l-216 -216l-20 20l196 196l-196 194l20 21z" />
    <glyph glyph-name="question" unicode="?" 
d="M253 707q0 -36 -19 -123l-80 -370h-30l84 380q17 77 17 111q0 79 -67 79q-32 0 -51 -23t-19 -55v-150h-28v150q0 50 31 80q27 26 67 26q39 0 65 -25q30 -28 30 -80zM154 0h-28v176h28v-176z" />
    <glyph glyph-name="at" unicode="@" horiz-adv-x="478" 
d="M418 146q0 -70 -50 -114.5t-129 -44.5t-129 44.5t-50 114.5v508q0 70 50 114.5t129 44.5t129 -44.5t50 -114.5v-418l-27 23q-28 -32 -70 -32q-38 0 -67 27t-29 71v175q0 45 27.5 72t66.5 27q49 0 71 -34v89q0 67 -50 102q-41 29 -101 29t-101 -29q-50 -35 -50 -102v-505
q0 -67 50 -102q41 -29 101 -29t101 29q50 35 50 102v48h28v-51zM390 327v174q0 30 -19.5 50t-50.5 20q-30 0 -48.5 -19.5t-18.5 -50.5v-176q0 -33 22 -53q19 -17 47 -17q29 0 48.5 18.5t19.5 53.5z" />
    <glyph glyph-name="A" unicode="A" horiz-adv-x="284" 
d="M254 0h-29l-23 188h-120l-23 -188h-29l98 800h28zM199 213l-49 404l-8 117l-9 -117l-48 -404h114z" />
    <glyph glyph-name="B" unicode="B" 
d="M253 107q0 -51 -30 -81q-27 -26 -66 -26h-97v800h97q39 0 66 -26q30 -29 30 -81v-195q0 -73 -57 -98q57 -25 57 -98v-195zM225 496v199q0 38 -20.5 59t-48.5 21h-68v-362h68q28 0 48.5 22.5t20.5 60.5zM225 105v199q0 38 -20.5 60.5t-48.5 22.5h-68v-362h68q28 0 48.5 21
t20.5 59z" />
    <glyph glyph-name="C" unicode="C" 
d="M253 96q0 -51 -29 -80t-68 -29t-66 27q-30 30 -30 82v608q0 51 31 82q27 27 66 27t66 -27q30 -30 30 -82v-232h-28v233q0 38 -20.5 59t-48.5 21t-48 -21t-20 -59v-610q0 -38 20 -59t48 -21t48.5 21t20.5 59v233h28v-232z" />
    <glyph glyph-name="D" unicode="D" 
d="M253 107q0 -51 -29 -79t-68 -28h-96v800h97q39 0 66 -26q30 -29 30 -81v-586zM225 105v590q0 38 -20.5 59t-48.5 21h-68v-750h68q28 0 48.5 21t20.5 59z" />
    <glyph glyph-name="E" unicode="E" horiz-adv-x="268" 
d="M233 0h-173v800h173v-25h-145v-362h107v-25h-107v-363h145v-25z" />
    <glyph glyph-name="F" unicode="F" horiz-adv-x="268" 
d="M233 775h-145v-362h107v-25h-107v-388h-28v800h173v-25z" />
    <glyph glyph-name="G" unicode="G" 
d="M253 -4l-27 23q-28 -32 -70 -32q-38 0 -67 27t-29 71v619q0 51 31 82q27 27 66 27t66 -27q30 -30 30 -82v-182h-28v183q0 38 -20.5 59t-48.5 21t-48 -21t-20 -59v-620q0 -33 22 -53q19 -17 47 -17q29 0 48.5 18.5t19.5 53.5v301h-99v25h127v-417z" />
    <glyph glyph-name="H" unicode="H" 
d="M253 0h-28v388h-137v-388h-28v800h28v-387h137v387h28v-800z" />
    <glyph glyph-name="I" unicode="I" horiz-adv-x="148" 
d="M88 0h-28v800h28v-800z" />
    <glyph glyph-name="J" unicode="J" 
d="M253 96q0 -52 -28.5 -80.5t-67.5 -28.5t-66 28q-31 30 -31 81v232h28v-233q0 -38 20.5 -59t48.5 -21t48 21t20 59v705h28v-704z" />
    <glyph glyph-name="K" unicode="K" horiz-adv-x="263" 
d="M263 0h-30l-145 415v-415h-28v800h28v-358l137 358h30l-143 -370z" />
    <glyph glyph-name="L" unicode="L" horiz-adv-x="273" 
d="M253 0h-193v800h28v-775h165v-25z" />
    <glyph glyph-name="M" unicode="M" horiz-adv-x="478" 
d="M418 0h-28l2 701l-18 -104l-121 -597h-28l-139 701l2 -102v-599h-28v800h29l150 -752l18 104l132 648h29v-800z" />
    <glyph glyph-name="N" unicode="N" 
d="M253 0h-28l-139 701l2 -102v-599h-28v800h29l139 -701l-3 102v599h28v-800z" />
    <glyph glyph-name="O" unicode="O" 
d="M253 96q0 -51 -29 -80t-68 -29t-66 27q-30 30 -30 82v608q0 51 31 82q27 27 66 27t66 -27q30 -30 30 -82v-608zM225 95v610q0 38 -20.5 59t-48.5 21t-48 -21t-20 -59v-610q0 -38 20 -59t48 -21t48.5 21t20.5 59z" />
    <glyph glyph-name="P" unicode="P" 
d="M253 495q0 -51 -28.5 -77t-68.5 -26h-68v-392h-28v800h97q39 0 66 -26q30 -29 30 -81v-198zM225 497v198q0 38 -20.5 59t-48.5 21h-68v-358h68q28 0 48.5 21t20.5 59z" />
    <glyph glyph-name="Q" unicode="Q" 
d="M253 96q0 -72 -55 -99l30 -86h-34l-21 78q-12 -2 -17 -2q-39 0 -66 27q-30 30 -30 82v608q0 51 31 82q27 27 66 27t66 -27q30 -30 30 -82v-608zM225 95v610q0 38 -20.5 59t-48.5 21t-48 -21t-20 -59v-610q0 -38 20 -59t48 -21t48.5 21t20.5 59z" />
    <glyph glyph-name="R" unicode="R" 
d="M253 0h-28v305q0 38 -20.5 60.5t-48.5 22.5h-68v-388h-28v800h97q39 0 66 -26q30 -29 30 -81v-195q0 -72 -56 -97q56 -24 56 -98v-303zM225 496v199q0 38 -20.5 59t-48.5 21h-68v-362h68q28 0 48.5 22.5t20.5 60.5z" />
    <glyph glyph-name="S" unicode="S" 
d="M253 92q0 -52 -30 -80q-26 -25 -65 -25q-40 0 -67 26q-31 30 -31 80v151h28v-151q0 -32 19 -55t51 -23q67 0 67 79q0 48 -21 113l-123 382q-21 65 -21 118q0 52 30 80q26 25 65 25q40 0 67 -26q31 -30 31 -80v-150h-28v150q0 32 -19 55t-51 23q-67 0 -67 -79
q0 -46 19 -106l123 -382q23 -70 23 -125z" />
    <glyph glyph-name="T" unicode="T" horiz-adv-x="298" 
d="M258 775h-95v-775h-28v775h-95v25h218v-25z" />
    <glyph glyph-name="U" unicode="U" 
d="M253 96q0 -51 -29 -80t-68 -29t-66 27q-30 30 -30 82v704h28v-705q0 -38 20 -59t48 -21t48.5 21t20.5 59v705h28v-704z" />
    <glyph glyph-name="V" unicode="V" horiz-adv-x="304" 
d="M264 800l-98 -800h-28l-98 800h29l83 -734l8 117l75 617h29z" />
    <glyph glyph-name="W" unicode="W" horiz-adv-x="439" 
d="M399 800l-83 -800h-28l-69 734l-6 -117l-62 -617h-28l-83 800h29l68 -734l7 117l61 617h29l68 -734l8 117l60 617h29z" />
    <glyph glyph-name="X" unicode="X" horiz-adv-x="281" 
d="M251 0h-28l-65 269l-17 87l-18 -87l-65 -269h-28l96 401l-96 399h29l64 -266l18 -88l17 88l64 266h29l-96 -399z" />
    <glyph glyph-name="Y" unicode="Y" horiz-adv-x="301" 
d="M261 800l-97 -422v-378h-28v380l-96 420h29l82 -374l17 90l64 284h29z" />
    <glyph glyph-name="Z" unicode="Z" horiz-adv-x="303" 
d="M263 0h-223l186 775h-176v25h211l-187 -775h189v-25z" />
    <glyph glyph-name="bracketleft" unicode="[" horiz-adv-x="233" 
d="M173 -80h-113v880h113v-25h-85v-830h85v-25z" />
    <glyph glyph-name="backslash" unicode="\" horiz-adv-x="261" 
d="M261 0h-28l-213 800h29z" />
    <glyph glyph-name="bracketright" unicode="]" horiz-adv-x="233" 
d="M173 -80h-113v25h85v830h-85v25h113v-880z" />
    <glyph glyph-name="underscore" unicode="_" horiz-adv-x="233" 
d="M223 -72h-213v25h213v-25z" />
    <glyph glyph-name="grave" unicode="`" horiz-adv-x="314" 
d="M221 640h-30l-98 160h35z" />
    <glyph glyph-name="a" unicode="a" 
d="M253 -4l-27 23q-28 -32 -70 -32q-38 0 -67 27t-29 71v42q0 63 56 139l78 106q31 42 31 90v29q0 38 -20.5 59t-48.5 21t-48 -21t-20 -59v-111h-28v110q0 52 30 82q27 27 67 27q39 0 66 -27q30 -30 30 -82v-494zM225 87v300q-7 -25 -27 -53l-62 -85q-48 -66 -48 -118v-46
q0 -33 22 -53q19 -17 47 -17q29 0 48.5 18.5t19.5 53.5z" />
    <glyph glyph-name="b" unicode="b" 
d="M253 85q0 -44 -29 -71t-67 -27q-42 0 -70 32l-27 -23v804h28v-235q22 34 71 34q39 0 66.5 -27t27.5 -72v-415zM225 85v416q0 31 -18.5 50.5t-48.5 19.5q-31 0 -50.5 -20t-19.5 -50v-414q0 -35 21 -55q18 -17 47 -17q28 0 48.5 18.5t20.5 51.5z" />
    <glyph glyph-name="c" unicode="c" 
d="M253 96q0 -51 -29 -80t-68 -29t-66 27q-30 30 -30 82v394q0 51 31 82q27 27 66 27t66 -27q30 -30 30 -82v-118h-28v119q0 38 -20.5 59t-48.5 21t-48 -21t-20 -59v-396q0 -38 20 -59t48 -21t48.5 21t20.5 59v118h28v-117z" />
    <glyph glyph-name="d" unicode="d" 
d="M253 -4l-27 23q-28 -32 -70 -32q-38 0 -67 27t-29 71v415q0 45 27.5 72t66.5 27q49 0 71 -34v235h28v-804zM225 87v414q0 30 -19.5 50t-50.5 20q-30 0 -48.5 -19.5t-18.5 -50.5v-416q0 -33 22 -53q19 -17 47 -17q29 0 48.5 18.5t19.5 53.5z" />
    <glyph glyph-name="e" unicode="e" 
d="M253 96q0 -51 -29 -80t-68 -29t-66 27q-30 30 -30 82v394q0 51 31 82q27 27 66 27t66 -27q30 -30 30 -82v-193h-165v-202q0 -38 20 -59t48 -21t48.5 21t20.5 59v118h28v-117zM225 322v169q0 38 -20.5 59t-48.5 21t-48 -21t-20 -59v-169h137z" />
    <glyph glyph-name="f" unicode="f" horiz-adv-x="223" 
d="M203 561h-78v-561h-28v561h-77v25h77v131q0 50 25 69q18 14 60 14h21v-25h-22q-31 0 -43.5 -12t-12.5 -45v-132h78v-25z" />
    <glyph glyph-name="g" unicode="g" horiz-adv-x="335" 
d="M325 558q-72 0 -72 -68v-276q0 -51 -28.5 -79t-68.5 -28q-32 0 -50 -18t-18 -45q0 -63 76 -63h22q51 0 80 -30q26 -27 26 -67q0 -39 -26 -66q-29 -30 -80 -30h-20q-51 0 -78.5 29t-27.5 68q0 56 49 83q-49 22 -49 77q0 52 47 76q-47 28 -47 93v276q0 51 31 82
q27 27 66 27q60 0 86 -56q21 43 82 43v-28zM225 215v276q0 38 -20.5 59t-48.5 21t-48 -21t-20 -59v-276q0 -38 20 -59t48 -21t48.5 21t20.5 59zM264 -116q0 29 -20 49t-57 20h-22q-37 0 -57 -20t-20 -49q0 -28 20 -48t57 -20h22q37 0 57 20t20 48z" />
    <glyph glyph-name="h" unicode="h" 
d="M253 0h-28v501q0 31 -18.5 50.5t-48.5 19.5q-31 0 -50.5 -20t-19.5 -50v-501h-28v800h28v-235q22 34 71 34q39 0 66.5 -27t27.5 -72v-500z" />
    <glyph glyph-name="i" unicode="i" horiz-adv-x="148" 
d="M88 672h-28v128h28v-128zM88 0h-28v586h28v-586z" />
    <glyph glyph-name="j" unicode="j" horiz-adv-x="148" 
d="M88 672h-28v128h28v-128zM88 -115q0 -99 -92 -99h-24v28h25q63 0 63 70v702h28v-701z" />
    <glyph glyph-name="k" unicode="k" horiz-adv-x="263" 
d="M263 0h-31l-144 326v-326h-28v800h28v-446l136 232h31l-143 -246z" />
    <glyph glyph-name="l" unicode="l" horiz-adv-x="148" 
d="M88 0h-28v800h28v-800z" />
    <glyph glyph-name="m" unicode="m" horiz-adv-x="458" 
d="M398 0h-28v504q0 67 -64 67q-63 0 -63 -67v-504h-28v504q0 67 -64 67q-63 0 -63 -67v-504h-28v590l26 -23q26 32 66 32q52 0 77 -42q28 42 78 42q38 0 64.5 -25.5t26.5 -69.5v-504z" />
    <glyph glyph-name="n" unicode="n" 
d="M253 0h-28v501q0 33 -22 53q-19 17 -47 17q-29 0 -47 -17q-21 -20 -21 -55v-499h-28v590l27 -23q28 32 70 32q38 0 67 -27t29 -71v-501z" />
    <glyph glyph-name="o" unicode="o" 
d="M253 96q0 -51 -29 -80t-68 -29t-66 27q-30 30 -30 82v394q0 51 31 82q27 27 66 27t66 -27q30 -30 30 -82v-394zM225 95v396q0 38 -20.5 59t-48.5 21t-48 -21t-20 -59v-396q0 -38 20 -59t48 -21t48.5 21t20.5 59z" />
    <glyph glyph-name="p" unicode="p" 
d="M253 86q0 -45 -27.5 -72t-66.5 -27q-49 0 -71 34v-235h-28v804l27 -23q28 32 70 32q38 0 67 -27t29 -71v-415zM225 85v416q0 33 -22 53q-19 17 -47 17q-29 0 -47 -17q-21 -20 -21 -55v-414q0 -30 19.5 -50t50.5 -20q30 0 48.5 19.5t18.5 50.5z" />
    <glyph glyph-name="q" unicode="q" 
d="M253 -214h-28v235q-22 -34 -71 -34q-39 0 -66.5 27t-27.5 72v415q0 44 29 71t67 27q42 0 70 -32l27 23v-804zM225 85v414q0 35 -21 55q-18 17 -47 17q-28 0 -47 -17q-22 -20 -22 -53v-416q0 -31 18.5 -50.5t48.5 -19.5q31 0 50.5 20t19.5 50z" />
    <glyph glyph-name="r" unicode="r" 
d="M253 380h-28v121q0 33 -22 53q-19 17 -47 17q-29 0 -47 -17q-21 -20 -21 -55v-499h-28v590l27 -23q28 32 70 32q38 0 67 -27t29 -71v-121z" />
    <glyph glyph-name="s" unicode="s" 
d="M253 92q0 -52 -30 -80q-26 -25 -65 -25q-40 0 -67 26q-31 30 -31 80v120h28v-120q0 -32 19 -55t51 -23q67 0 67 79q0 34 -26 85l-110 216q-29 57 -29 99q0 52 30 80q26 25 65 25q40 0 67 -26q31 -30 31 -80v-113h-28v113q0 32 -19 55t-51 23q-67 0 -67 -79q0 -34 27 -87
l110 -216q28 -55 28 -97z" />
    <glyph glyph-name="t" unicode="t" horiz-adv-x="223" 
d="M203 0h-21q-42 0 -60 15q-25 18 -25 68v478h-77v25h77v214h28v-214h78v-25h-78v-479q0 -33 12.5 -45t43.5 -12h22v-25z" />
    <glyph glyph-name="u" unicode="u" 
d="M253 -4l-27 23q-28 -32 -70 -32q-38 0 -67 27t-29 71v501h28v-501q0 -33 22 -53q19 -17 47 -17q29 0 48.5 18.5t19.5 53.5v499h28v-590z" />
    <glyph glyph-name="v" unicode="v" horiz-adv-x="254" 
d="M234 586l-93 -586h-28l-93 586h29l78 -525l14 122l64 403h29z" />
    <glyph glyph-name="w" unicode="w" horiz-adv-x="399" 
d="M379 586l-83 -586h-28l-69 525l-11 -122l-57 -403h-28l-83 586h29l68 -525l12 122l56 403h29l68 -525l12 122l56 403h29z" />
    <glyph glyph-name="x" unicode="x" horiz-adv-x="261" 
d="M241 0h-28l-62 187l-20 73l-21 -73l-62 -187h-28l96 294l-96 292h29l60 -183l22 -76l21 76l60 183h29l-96 -292z" />
    <glyph glyph-name="y" unicode="y" horiz-adv-x="254" 
d="M234 586l-113 -715q-6 -39 -34 -62t-62 -23h-20v25h21q23 0 43 18.5t25 47.5l19 121l-93 588h29l78 -525l14 122l64 403h29z" />
    <glyph glyph-name="z" unicode="z" horiz-adv-x="283" 
d="M253 0h-223l183 561h-173v25h211l-184 -561h186v-25z" />
    <glyph glyph-name="braceleft" unicode="{" horiz-adv-x="234" 
d="M174 785q-28 0 -47 -20q-22 -23 -22 -60v-244q0 -73 -57 -98q57 -25 57 -98v-247q0 -38 20 -59t48 -21v-28q-39 0 -66 27q-30 30 -30 82v248q0 38 -20.5 60.5t-48.5 22.5h-8v26h8q28 0 48.5 22.5t20.5 60.5v245q0 51 31 82q27 27 66 27v-28z" />
    <glyph glyph-name="bar" unicode="|" horiz-adv-x="148" 
d="M88 -200h-28v1000h28v-1000z" />
    <glyph glyph-name="braceright" unicode="}" horiz-adv-x="234" 
d="M234 350h-8q-28 0 -48.5 -22.5t-20.5 -60.5v-248q0 -52 -28.5 -80.5t-67.5 -28.5v28q28 0 48 21t20 59v247q0 73 57 98q-57 25 -57 98v244q0 37 -22 60q-19 20 -47 20v28q39 0 67 -27q30 -31 30 -82v-245q0 -38 20.5 -60.5t48.5 -22.5h8v-26z" />
    <glyph glyph-name="asciitilde" unicode="~" horiz-adv-x="314" 
d="M289 378q-39 -43 -77 -43q-23 0 -60.5 18.5t-52.5 18.5q-24 0 -53 -32l-21 17q36 43 74 43q22 0 58.5 -18.5t54.5 -18.5q27 0 56 32z" />
    <glyph glyph-name="nonbreakingspace" unicode="&#xa0;" horiz-adv-x="148" 
 />
    <glyph glyph-name="exclamdown" unicode="&#xa1;" horiz-adv-x="148" 
d="M88 624h-28v176h28v-176zM92 0h-36l9 586h18z" />
    <glyph glyph-name="cent" unicode="&#xa2;" 
d="M253 186q0 -47 -25 -75.5t-60 -32.5v-78h-28v78q-34 6 -56 32q-24 30 -24 76v427q0 45 24 75q22 26 56 32v80h28v-79q36 -4 60.5 -32t24.5 -76v-118h-28v119q0 38 -20.5 59t-48.5 21t-48 -21t-20 -59v-429q0 -38 20 -59t48 -21t48.5 21t20.5 59v118h28v-117z" />
    <glyph glyph-name="sterling" unicode="&#xa3;" 
d="M253 0h-193v25h54l-30 363h-24v25h22l-18 223q-4 50 -4 71q0 52 30 80q26 25 65 25q40 0 67 -26q31 -30 31 -80v-150h-28v150q0 32 -19 55t-51 23q-67 0 -67 -79q0 -36 2 -59l20 -233h105v-25h-103l31 -363h110v-25z" />
    <glyph glyph-name="currency" unicode="&#xa4;" 
d="M253 96q0 -51 -29 -80t-68 -29t-66 27q-30 30 -30 82v228h-40v25h40v103h-40v25h40v227q0 51 31 82q27 27 66 27t66 -27q30 -30 30 -82v-142h-28v143q0 38 -20.5 59t-48.5 21t-48 -21t-20 -59v-228h90v-25h-90v-103h90v-25h-90v-229q0 -38 20 -59t48 -21t48.5 21t20.5 59
v143h28v-142z" />
    <glyph glyph-name="yen" unicode="&#xa5;" horiz-adv-x="261" 
d="M241 800l-88 -383h75v-25h-84v-103h84v-25h-84v-264h-28v264h-84v25h84v103h-84v25h76l-88 383h29l82 -369l17 85l64 284h29z" />
    <glyph glyph-name="section" unicode="&#xa7;" 
d="M253 31q0 -52 -30 -80q-26 -25 -65 -25q-40 0 -67 26q-31 30 -31 80v120h28v-120q0 -32 19 -55t51 -23q67 0 67 79q0 34 -26 85l-110 216q-29 57 -29 99q0 82 67 101l-38 75q-29 57 -29 99q0 52 30 80q26 25 65 25q40 0 67 -26q31 -30 31 -80v-113h-28v113q0 32 -19 55
t-51 23q-67 0 -67 -79q0 -34 27 -87l110 -216q28 -55 28 -97q0 -82 -67 -101l39 -77q28 -55 28 -97zM225 308q0 34 -26 85l-59 116q-52 -11 -52 -78q0 -34 27 -87l58 -114q52 11 52 78z" />
    <glyph glyph-name="dieresis" unicode="&#xa8;" horiz-adv-x="307" 
d="M253 683h-28v117h28v-117zM88 683h-28v117h28v-117z" />
    <glyph glyph-name="copyright" unicode="&#xa9;" horiz-adv-x="478" 
d="M418 146q0 -70 -50 -114.5t-129 -44.5t-129 44.5t-50 114.5v508q0 70 50 114.5t129 44.5t129 -44.5t50 -114.5v-508zM390 149v505q0 67 -50 102q-41 29 -101 29t-101 -29q-50 -35 -50 -102v-505q0 -67 50 -102q41 -29 101 -29t101 29q50 35 50 102zM294 238
q0 -28 -16.5 -44.5t-39.5 -16.5q-22 0 -38.5 16.5t-16.5 44.5v324q0 29 17 45.5t39 16.5t38.5 -16.5t16.5 -45.5v-123h-28v124q0 33 -28 33q-27 0 -27 -33v-325q0 -33 27 -33q28 0 28 33v123h28v-123z" />
    <glyph glyph-name="guillemotleft" unicode="&#xab;" horiz-adv-x="392" 
d="M372 222l-20 -20l-182 182l182 182l20 -20l-162 -162zM222 222l-20 -20l-182 182l182 182l20 -20l-162 -162z" />
    <glyph glyph-name="minus" unicode="&#xad;" 
d="M273 388h-233v25h233v-25z" />
    <glyph glyph-name="minus" unicode="&#x2212;" 
d="M273 388h-233v25h233v-25z" />
    <glyph glyph-name="registered" unicode="&#xae;" horiz-adv-x="478" 
d="M418 146q0 -70 -50 -114.5t-129 -44.5t-129 44.5t-50 114.5v508q0 70 50 114.5t129 44.5t129 -44.5t50 -114.5v-508zM390 149v505q0 67 -50 102q-41 29 -101 29t-101 -29q-50 -35 -50 -102v-505q0 -67 50 -102q41 -29 101 -29t101 29q50 35 50 102zM294 183h-28v170
q0 34 -28 34h-27v-204h-28v434h56q22 0 38.5 -16t16.5 -44v-108q0 -37 -27 -49q27 -10 27 -48v-169zM266 448v110q0 33 -28 33h-27v-177h27q28 0 28 34z" />
    <glyph glyph-name="macron" unicode="&#xaf;" 
d="M253 775h-193v25h193v-25z" />
    <glyph glyph-name="macron" unicode="&#x2c9;" 
d="M253 775h-193v25h193v-25z" />
    <glyph glyph-name="degree" unicode="&#xb0;" 
d="M253 717q0 -40 -28 -68.5t-68 -28.5t-68.5 28.5t-28.5 68.5t28.5 68t68.5 28t68 -28t28 -68zM225 717q0 28 -20 48t-48 20t-48.5 -20t-20.5 -48t20.5 -48.5t48.5 -20.5t48 20.5t20 48.5z" />
    <glyph glyph-name="acute" unicode="&#xb4;" horiz-adv-x="314" 
d="M221 800l-98 -160h-30l93 160h35z" />
    <glyph glyph-name="paragraph" unicode="&#xb6;" horiz-adv-x="428" 
d="M368 -200h-28v975h-117v-975h-28v610q-81 0 -138 57t-57 138t57 138t138 57h173v-1000z" />
    <glyph glyph-name="periodcentered" unicode="&#xb7;" horiz-adv-x="148" 
d="M88 312h-28v176h28v-176z" />
    <glyph glyph-name="periodcentered" unicode="&#x2219;" horiz-adv-x="148" 
d="M88 312h-28v176h28v-176z" />
    <glyph glyph-name="cedilla" unicode="&#xb8;" horiz-adv-x="307" 
d="M171 -7l-83 -160h-35l90 160h28z" />
    <glyph glyph-name="guillemotright" unicode="&#xbb;" horiz-adv-x="392" 
d="M372 384l-182 -182l-20 20l162 162l-162 162l20 20zM222 384l-182 -182l-20 20l162 162l-162 162l20 20z" />
    <glyph glyph-name="questiondown" unicode="&#xbf;" 
d="M187 624h-28v176h28v-176zM253 94q0 -50 -31 -80q-27 -26 -67 -26q-39 0 -65 25q-30 28 -30 80q0 36 19 123l80 370h30l-84 -380q-17 -77 -17 -111q0 -79 67 -79q32 0 51 23t19 55v150h28v-150z" />
    <glyph glyph-name="Agrave" unicode="&#xc0;" horiz-adv-x="284" 
d="M254 0h-29l-23 188h-120l-23 -188h-29l98 800h28zM199 213l-49 404l-8 117l-9 -117l-48 -404h114zM201 851h-30l-98 160h35z" />
    <glyph glyph-name="Aacute" unicode="&#xc1;" horiz-adv-x="284" 
d="M254 0h-29l-23 188h-120l-23 -188h-29l98 800h28zM199 213l-49 404l-8 117l-9 -117l-48 -404h114zM201 1011l-98 -160h-30l93 160h35z" />
    <glyph glyph-name="Acircumflex" unicode="&#xc2;" horiz-adv-x="284" 
d="M254 0h-29l-23 188h-120l-23 -188h-29l98 800h28zM199 213l-49 404l-8 117l-9 -117l-48 -404h114zM245 896l-21 -18l-82 94l-82 -94l-21 18l103 116z" />
    <glyph glyph-name="Atilde" unicode="&#xc3;" horiz-adv-x="284" 
d="M254 0h-29l-23 188h-120l-23 -188h-29l98 800h28zM199 213l-49 404l-8 117l-9 -117l-48 -404h114zM243 950q-38 -42 -66 -42q-21 0 -46.5 19t-36.5 19q-14 0 -45 -34l-20 19q37 43 65 43q21 0 46.5 -19t36.5 -19q15 0 45 33z" />
    <glyph glyph-name="Adieresis" unicode="&#xc4;" horiz-adv-x="284" 
d="M254 0h-29l-23 188h-120l-23 -188h-29l98 800h28zM199 213l-49 404l-8 117l-9 -117l-48 -404h114zM239 851h-28v117h28v-117zM74 851h-28v117h28v-117z" />
    <glyph glyph-name="Aring" unicode="&#xc5;" horiz-adv-x="284" 
d="M254 0h-29l-23 188h-120l-23 -188h-29l98 800h28zM199 213l-49 404l-8 117l-9 -117l-48 -404h114zM223 966q0 -34 -24 -57.5t-57 -23.5q-34 0 -57.5 23.5t-23.5 57.5q0 33 23.5 57t57.5 24q33 0 57 -24t24 -57zM198 966q0 23 -16.5 39.5t-39.5 16.5t-39.5 -16.5
t-16.5 -39.5t16.5 -39.5t39.5 -16.5t39.5 16.5t16.5 39.5z" />
    <glyph glyph-name="AE" unicode="&#xc6;" horiz-adv-x="418" 
d="M383 0h-173v188h-112l-39 -188h-29l166 800h187v-25h-145v-362h107v-25h-107v-363h145v-25zM210 213v551l-30 -178l-77 -373h107z" />
    <glyph glyph-name="Ccedilla" unicode="&#xc7;" 
d="M253 96q0 -51 -29 -80t-68 -29t-66 27q-30 30 -30 82v608q0 51 31 82q27 27 66 27t66 -27q30 -30 30 -82v-232h-28v233q0 38 -20.5 59t-48.5 21t-48 -21t-20 -59v-610q0 -38 20 -59t48 -21t48.5 21t20.5 59v233h28v-232zM171 -7l-83 -160h-35l90 160h28z" />
    <glyph glyph-name="Egrave" unicode="&#xc8;" horiz-adv-x="268" 
d="M233 0h-173v800h173v-25h-145v-362h107v-25h-107v-363h145v-25zM201 851h-30l-98 160h35z" />
    <glyph glyph-name="Eacute" unicode="&#xc9;" horiz-adv-x="268" 
d="M233 0h-173v800h173v-25h-145v-362h107v-25h-107v-363h145v-25zM221 1011l-98 -160h-30l93 160h35z" />
    <glyph glyph-name="Ecircumflex" unicode="&#xca;" horiz-adv-x="268" 
d="M233 0h-173v800h173v-25h-145v-362h107v-25h-107v-363h145v-25zM248 896l-21 -18l-82 94l-82 -94l-21 18l103 116z" />
    <glyph glyph-name="Edieresis" unicode="&#xcb;" horiz-adv-x="268" 
d="M233 0h-173v800h173v-25h-145v-362h107v-25h-107v-363h145v-25zM242 851h-28v117h28v-117zM77 851h-28v117h28v-117zM242 851h-28v117h28v-117zM77 851h-28v117h28v-117z" />
    <glyph glyph-name="Igrave" unicode="&#xcc;" horiz-adv-x="148" 
d="M88 0h-28v800h28v-800zM135 851h-30l-98 160h35z" />
    <glyph glyph-name="Iacute" unicode="&#xcd;" horiz-adv-x="148" 
d="M88 0h-28v800h28v-800zM131 1011l-98 -160h-30l93 160h35z" />
    <glyph glyph-name="Icircumflex" unicode="&#xce;" horiz-adv-x="148" 
d="M88 0h-28v800h28v-800zM177 896l-21 -18l-82 94l-82 -94l-21 18l103 116z" />
    <glyph glyph-name="Idieresis" unicode="&#xcf;" horiz-adv-x="148" 
d="M88 0h-28v800h28v-800zM171 851h-28v117h28v-117zM6 851h-28v117h28v-117z" />
    <glyph glyph-name="Eth" unicode="&#xd0;" 
d="M253 107q0 -51 -29 -79t-68 -28h-96v397l-60 -19v27l60 19v376h97q39 0 66 -26q30 -29 30 -81v-586zM225 105v590q0 38 -20.5 59t-48.5 21h-68v-343l60 19v-27l-60 -19v-380h68q28 0 48.5 21t20.5 59z" />
    <glyph glyph-name="Ntilde" unicode="&#xd1;" 
d="M253 0h-28l-139 701l2 -102v-599h-28v800h29l139 -701l-3 102v599h28v-800zM263 950q-38 -42 -66 -42q-21 0 -46.5 19t-36.5 19q-14 0 -45 -34l-20 19q37 43 65 43q21 0 46.5 -19t36.5 -19q15 0 45 33z" />
    <glyph glyph-name="Ograve" unicode="&#xd2;" 
d="M253 96q0 -51 -29 -80t-68 -29t-66 27q-30 30 -30 82v608q0 51 31 82q27 27 66 27t66 -27q30 -30 30 -82v-608zM225 95v610q0 38 -20.5 59t-48.5 21t-48 -21t-20 -59v-610q0 -38 20 -59t48 -21t48.5 21t20.5 59zM221 850h-30l-98 160h35z" />
    <glyph glyph-name="Oacute" unicode="&#xd3;" 
d="M253 96q0 -51 -29 -80t-68 -29t-66 27q-30 30 -30 82v608q0 51 31 82q27 27 66 27t66 -27q30 -30 30 -82v-608zM225 95v610q0 38 -20.5 59t-48.5 21t-48 -21t-20 -59v-610q0 -38 20 -59t48 -21t48.5 21t20.5 59zM221 1011l-98 -160h-30l93 160h35z" />
    <glyph glyph-name="Ocircumflex" unicode="&#xd4;" 
d="M253 96q0 -51 -29 -80t-68 -29t-66 27q-30 30 -30 82v608q0 51 31 82q27 27 66 27t66 -27q30 -30 30 -82v-608zM225 95v610q0 38 -20.5 59t-48.5 21t-48 -21t-20 -59v-610q0 -38 20 -59t48 -21t48.5 21t20.5 59zM259 896l-21 -18l-82 94l-82 -94l-21 18l103 116z" />
    <glyph glyph-name="Otilde" unicode="&#xd5;" 
d="M253 96q0 -51 -29 -80t-68 -29t-66 27q-30 30 -30 82v608q0 51 31 82q27 27 66 27t66 -27q30 -30 30 -82v-608zM225 95v610q0 38 -20.5 59t-48.5 21t-48 -21t-20 -59v-610q0 -38 20 -59t48 -21t48.5 21t20.5 59zM263 950q-38 -42 -66 -42q-21 0 -46.5 19t-36.5 19
q-14 0 -45 -34l-20 19q37 43 65 43q21 0 46.5 -19t36.5 -19q15 0 45 33z" />
    <glyph glyph-name="Odieresis" unicode="&#xd6;" 
d="M253 96q0 -51 -29 -80t-68 -29t-66 27q-30 30 -30 82v608q0 51 31 82q27 27 66 27t66 -27q30 -30 30 -82v-608zM225 95v610q0 38 -20.5 59t-48.5 21t-48 -21t-20 -59v-610q0 -38 20 -59t48 -21t48.5 21t20.5 59zM253 851h-28v117h28v-117zM88 851h-28v117h28v-117z" />
    <glyph glyph-name="multiply" unicode="&#xd7;" horiz-adv-x="364" 
d="M344 258l-20 -20l-142 142l-142 -142l-20 20l142 142l-142 142l20 20l142 -142l142 142l20 -20l-142 -142z" />
    <glyph glyph-name="Oslash" unicode="&#xd8;" 
d="M282 800l-29 -101v-603q0 -51 -29 -80t-68 -29q-65 0 -89 63l-14 -50h-22l29 102v602q0 51 31 82q27 27 66 27q64 0 88 -62l14 49h23zM225 681v24q0 38 -20.5 59t-48.5 21t-48 -21t-20 -59v-505zM225 95v506l-137 -479v-27q0 -38 20 -59t48 -21t48.5 21t20.5 59z" />
    <glyph glyph-name="Ugrave" unicode="&#xd9;" 
d="M253 96q0 -51 -29 -80t-68 -29t-66 27q-30 30 -30 82v704h28v-705q0 -38 20 -59t48 -21t48.5 21t20.5 59v705h28v-704zM221 850h-30l-98 160h35z" />
    <glyph glyph-name="Uacute" unicode="&#xda;" 
d="M253 96q0 -51 -29 -80t-68 -29t-66 27q-30 30 -30 82v704h28v-705q0 -38 20 -59t48 -21t48.5 21t20.5 59v705h28v-704zM221 1011l-98 -160h-30l93 160h35z" />
    <glyph glyph-name="Ucircumflex" unicode="&#xdb;" 
d="M253 96q0 -51 -29 -80t-68 -29t-66 27q-30 30 -30 82v704h28v-705q0 -38 20 -59t48 -21t48.5 21t20.5 59v705h28v-704zM259 896l-21 -18l-82 94l-82 -94l-21 18l103 116z" />
    <glyph glyph-name="Udieresis" unicode="&#xdc;" 
d="M253 96q0 -51 -29 -80t-68 -29t-66 27q-30 30 -30 82v704h28v-705q0 -38 20 -59t48 -21t48.5 21t20.5 59v705h28v-704zM253 851h-28v117h28v-117zM88 851h-28v117h28v-117z" />
    <glyph glyph-name="Yacute" unicode="&#xdd;" horiz-adv-x="301" 
d="M261 800l-97 -422v-378h-28v380l-96 420h29l82 -374l17 90l64 284h29zM221 1011l-98 -160h-30l93 160h35z" />
    <glyph glyph-name="Thorn" unicode="&#xde;" 
d="M253 299q0 -51 -28.5 -77t-68.5 -26h-68v-196h-28v800h28v-196h69q39 0 66 -26q30 -29 30 -81v-198zM225 301v198q0 38 -20.5 59t-48.5 21h-68v-358h68q28 0 48.5 21t20.5 59z" />
    <glyph glyph-name="germandbls" unicode="&#xdf;" horiz-adv-x="515" 
d="M455 92q0 -52 -30 -80q-26 -25 -65 -25q-40 0 -67 26q-31 30 -31 80v120h28v-120q0 -32 19 -55t51 -23q67 0 67 79q0 34 -26 85l-110 216q-29 57 -29 99v211q0 38 -20.5 59t-48.5 21t-48 -21t-20 -59v-705h-28v561h-77v25h77v118q0 51 31 82q27 27 66 27t66 -27
q30 -30 30 -82v-212q0 -34 27 -87l110 -216q28 -55 28 -97z" />
    <glyph glyph-name="agrave" unicode="&#xe0;" 
d="M253 -4l-27 23q-28 -32 -70 -32q-38 0 -67 27t-29 71v42q0 63 56 139l78 106q31 42 31 90v29q0 38 -20.5 59t-48.5 21t-48 -21t-20 -59v-111h-28v110q0 52 30 82q27 27 67 27q39 0 66 -27q30 -30 30 -82v-494zM225 87v300q-7 -25 -27 -53l-62 -85q-48 -66 -48 -118v-46
q0 -33 22 -53q19 -17 47 -17q29 0 48.5 18.5t19.5 53.5zM221 640h-30l-98 160h35z" />
    <glyph glyph-name="aacute" unicode="&#xe1;" 
d="M253 -4l-27 23q-28 -32 -70 -32q-38 0 -67 27t-29 71v42q0 63 56 139l78 106q31 42 31 90v29q0 38 -20.5 59t-48.5 21t-48 -21t-20 -59v-111h-28v110q0 52 30 82q27 27 67 27q39 0 66 -27q30 -30 30 -82v-494zM225 87v300q-7 -25 -27 -53l-62 -85q-48 -66 -48 -118v-46
q0 -33 22 -53q19 -17 47 -17q29 0 48.5 18.5t19.5 53.5zM221 800l-98 -160h-30l93 160h35z" />
    <glyph glyph-name="acircumflex" unicode="&#xe2;" 
d="M253 -4l-27 23q-28 -32 -70 -32q-38 0 -67 27t-29 71v42q0 63 56 139l78 106q31 42 31 90v29q0 38 -20.5 59t-48.5 21t-48 -21t-20 -59v-111h-28v110q0 52 30 82q27 27 67 27q39 0 66 -27q30 -30 30 -82v-494zM225 87v300q-7 -25 -27 -53l-62 -85q-48 -66 -48 -118v-46
q0 -33 22 -53q19 -17 47 -17q29 0 48.5 18.5t19.5 53.5zM259 698l-21 -18l-82 94l-82 -94l-21 18l103 116z" />
    <glyph glyph-name="atilde" unicode="&#xe3;" 
d="M253 -4l-27 23q-28 -32 -70 -32q-38 0 -67 27t-29 71v42q0 63 56 139l78 106q31 42 31 90v29q0 38 -20.5 59t-48.5 21t-48 -21t-20 -59v-111h-28v110q0 52 30 82q27 27 67 27q39 0 66 -27q30 -30 30 -82v-494zM225 87v300q-7 -25 -27 -53l-62 -85q-48 -66 -48 -118v-46
q0 -33 22 -53q19 -17 47 -17q29 0 48.5 18.5t19.5 53.5zM261 789q-38 -42 -66 -42q-21 0 -46.5 19t-36.5 19q-14 0 -45 -34l-20 19q37 43 65 43q21 0 46.5 -19t36.5 -19q15 0 45 33z" />
    <glyph glyph-name="adieresis" unicode="&#xe4;" 
d="M253 -4l-27 23q-28 -32 -70 -32q-38 0 -67 27t-29 71v42q0 63 56 139l78 106q31 42 31 90v29q0 38 -20.5 59t-48.5 21t-48 -21t-20 -59v-111h-28v110q0 52 30 82q27 27 67 27q39 0 66 -27q30 -30 30 -82v-494zM225 87v300q-7 -25 -27 -53l-62 -85q-48 -66 -48 -118v-46
q0 -33 22 -53q19 -17 47 -17q29 0 48.5 18.5t19.5 53.5zM253 683h-28v117h28v-117zM88 683h-28v117h28v-117z" />
    <glyph glyph-name="aring" unicode="&#xe5;" 
d="M253 -4l-27 23q-28 -32 -70 -32q-38 0 -67 27t-29 71v42q0 63 56 139l78 106q31 42 31 90v29q0 38 -20.5 59t-48.5 21t-48 -21t-20 -59v-111h-28v110q0 52 30 82q27 27 67 27q39 0 66 -27q30 -30 30 -82v-494zM225 87v300q-7 -25 -27 -53l-62 -85q-48 -66 -48 -118v-46
q0 -33 22 -53q19 -17 47 -17q29 0 48.5 18.5t19.5 53.5zM235 775q0 -34 -24 -57.5t-57 -23.5q-34 0 -57.5 23.5t-23.5 57.5q0 33 23.5 57t57.5 24q33 0 57 -24t24 -57zM210 775q0 23 -16.5 39.5t-39.5 16.5t-39.5 -16.5t-16.5 -39.5t16.5 -39.5t39.5 -16.5t39.5 16.5
t16.5 39.5z" />
    <glyph glyph-name="ae" unicode="&#xe6;" horiz-adv-x="478" 
d="M418 96q0 -51 -29 -80t-68 -29q-58 0 -82 54q-25 -54 -83 -54q-38 0 -67 27t-29 71v42q0 63 56 139l78 106q31 42 31 90v29q0 38 -20.5 59t-48.5 21t-48 -21t-20 -59v-111h-28v110q0 52 30 82q27 27 67 27q58 0 82 -54q26 54 83 54q39 0 66 -27q30 -30 30 -82v-193h-165
v-202q0 -38 20 -59t48 -21t48.5 21t20.5 59v118h28v-117zM390 322v169q0 38 -20.5 59t-48.5 21t-48 -21t-20 -59v-169h137zM225 87v300q-7 -25 -27 -53l-62 -85q-48 -66 -48 -118v-46q0 -33 22 -53q19 -17 47 -17q29 0 48.5 18.5t19.5 53.5z" />
    <glyph glyph-name="ccedilla" unicode="&#xe7;" 
d="M253 96q0 -51 -29 -80t-68 -29t-66 27q-30 30 -30 82v394q0 51 31 82q27 27 66 27t66 -27q30 -30 30 -82v-118h-28v119q0 38 -20.5 59t-48.5 21t-48 -21t-20 -59v-396q0 -38 20 -59t48 -21t48.5 21t20.5 59v118h28v-117zM171 -7l-83 -160h-35l90 160h28z" />
    <glyph glyph-name="egrave" unicode="&#xe8;" 
d="M253 96q0 -51 -29 -80t-68 -29t-66 27q-30 30 -30 82v394q0 51 31 82q27 27 66 27t66 -27q30 -30 30 -82v-193h-165v-202q0 -38 20 -59t48 -21t48.5 21t20.5 59v118h28v-117zM225 322v169q0 38 -20.5 59t-48.5 21t-48 -21t-20 -59v-169h137zM221 640h-30l-98 160h35z" />
    <glyph glyph-name="eacute" unicode="&#xe9;" 
d="M253 96q0 -51 -29 -80t-68 -29t-66 27q-30 30 -30 82v394q0 51 31 82q27 27 66 27t66 -27q30 -30 30 -82v-193h-165v-202q0 -38 20 -59t48 -21t48.5 21t20.5 59v118h28v-117zM225 322v169q0 38 -20.5 59t-48.5 21t-48 -21t-20 -59v-169h137zM221 800l-98 -160h-30l93 160
h35z" />
    <glyph glyph-name="ecircumflex" unicode="&#xea;" 
d="M253 96q0 -51 -29 -80t-68 -29t-66 27q-30 30 -30 82v394q0 51 31 82q27 27 66 27t66 -27q30 -30 30 -82v-193h-165v-202q0 -38 20 -59t48 -21t48.5 21t20.5 59v118h28v-117zM225 322v169q0 38 -20.5 59t-48.5 21t-48 -21t-20 -59v-169h137zM259 698l-21 -18l-82 94
l-82 -94l-21 18l103 116z" />
    <glyph glyph-name="edieresis" unicode="&#xeb;" 
d="M253 96q0 -51 -29 -80t-68 -29t-66 27q-30 30 -30 82v394q0 51 31 82q27 27 66 27t66 -27q30 -30 30 -82v-193h-165v-202q0 -38 20 -59t48 -21t48.5 21t20.5 59v118h28v-117zM225 322v169q0 38 -20.5 59t-48.5 21t-48 -21t-20 -59v-169h137zM253 683h-28v117h28v-117z
M88 683h-28v117h28v-117z" />
    <glyph glyph-name="igrave" unicode="&#xec;" horiz-adv-x="148" 
d="M138 640h-30l-98 160h35zM88 0h-28v586h28v-586z" />
    <glyph glyph-name="iacute" unicode="&#xed;" horiz-adv-x="148" 
d="M138 800l-98 -160h-30l93 160h35zM88 0h-28v586h28v-586z" />
    <glyph glyph-name="icircumflex" unicode="&#xee;" horiz-adv-x="148" 
d="M177 698l-21 -18l-82 94l-82 -94l-21 18l103 116zM88 0h-28v586h28v-586z" />
    <glyph glyph-name="idieresis" unicode="&#xef;" horiz-adv-x="148" 
d="M170 683h-28v117h28v-117zM5 683h-28v117h28v-117zM88 0h-28v586h28v-586z" />
    <glyph glyph-name="eth" unicode="&#xf0;" 
d="M253 96q0 -51 -30 -82q-28 -27 -67 -27t-66 27q-30 30 -30 82v394q0 51 31 82q27 27 66 27q15 0 30 -5l-41 81l-86 -27v27l74 23l-52 102h32l47 -93l92 28v-27l-80 -25l52 -102q28 -55 28 -97v-388zM225 95v396q0 38 -20.5 59t-48.5 21t-48 -21t-20 -59v-396
q0 -38 20 -59t48 -21t48.5 21t20.5 59z" />
    <glyph glyph-name="ntilde" unicode="&#xf1;" 
d="M253 0h-28v501q0 33 -22 53q-19 17 -47 17q-29 0 -47 -17q-21 -20 -21 -55v-499h-28v590l27 -23q28 32 70 32q38 0 67 -27t29 -71v-501zM261 789q-38 -42 -66 -42q-21 0 -46.5 19t-36.5 19q-14 0 -45 -34l-20 19q37 43 65 43q21 0 46.5 -19t36.5 -19q15 0 45 33z" />
    <glyph glyph-name="ograve" unicode="&#xf2;" 
d="M253 96q0 -51 -29 -80t-68 -29t-66 27q-30 30 -30 82v394q0 51 31 82q27 27 66 27t66 -27q30 -30 30 -82v-394zM225 95v396q0 38 -20.5 59t-48.5 21t-48 -21t-20 -59v-396q0 -38 20 -59t48 -21t48.5 21t20.5 59zM221 640h-30l-98 160h35z" />
    <glyph glyph-name="oacute" unicode="&#xf3;" 
d="M253 96q0 -51 -29 -80t-68 -29t-66 27q-30 30 -30 82v394q0 51 31 82q27 27 66 27t66 -27q30 -30 30 -82v-394zM225 95v396q0 38 -20.5 59t-48.5 21t-48 -21t-20 -59v-396q0 -38 20 -59t48 -21t48.5 21t20.5 59zM221 800l-98 -160h-30l93 160h35z" />
    <glyph glyph-name="ocircumflex" unicode="&#xf4;" 
d="M253 96q0 -51 -29 -80t-68 -29t-66 27q-30 30 -30 82v394q0 51 31 82q27 27 66 27t66 -27q30 -30 30 -82v-394zM225 95v396q0 38 -20.5 59t-48.5 21t-48 -21t-20 -59v-396q0 -38 20 -59t48 -21t48.5 21t20.5 59zM259 698l-21 -18l-82 94l-82 -94l-21 18l103 116z" />
    <glyph glyph-name="otilde" unicode="&#xf5;" 
d="M253 96q0 -51 -29 -80t-68 -29t-66 27q-30 30 -30 82v394q0 51 31 82q27 27 66 27t66 -27q30 -30 30 -82v-394zM225 95v396q0 38 -20.5 59t-48.5 21t-48 -21t-20 -59v-396q0 -38 20 -59t48 -21t48.5 21t20.5 59zM261 789q-38 -42 -66 -42q-21 0 -46.5 19t-36.5 19
q-14 0 -45 -34l-20 19q37 43 65 43q21 0 46.5 -19t36.5 -19q15 0 45 33z" />
    <glyph glyph-name="odieresis" unicode="&#xf6;" 
d="M253 96q0 -51 -29 -80t-68 -29t-66 27q-30 30 -30 82v394q0 51 31 82q27 27 66 27t66 -27q30 -30 30 -82v-394zM225 95v396q0 38 -20.5 59t-48.5 21t-48 -21t-20 -59v-396q0 -38 20 -59t48 -21t48.5 21t20.5 59zM253 683h-28v117h28v-117zM88 683h-28v117h28v-117z" />
    <glyph glyph-name="divide" unicode="&#xf7;" 
d="M170 454h-28v117h28v-117zM273 388h-233v25h233v-25zM170 229h-28v117h28v-117z" />
    <glyph glyph-name="oslash" unicode="&#xf8;" 
d="M282 586l-30 -77q1 -6 1 -19v-394q0 -51 -29 -80t-68 -29q-61 0 -85 56l-17 -43h-23l30 78q-1 5 -1 18v394q0 51 31 82q27 27 66 27q60 0 85 -55l16 42h24zM225 500q-3 34 -23 52.5t-46 18.5q-28 0 -48 -21t-20 -59v-344zM225 95v345l-137 -352q2 -34 22 -53.5t46 -19.5
q28 0 48.5 21t20.5 59z" />
    <glyph glyph-name="ugrave" unicode="&#xf9;" 
d="M253 -4l-27 23q-28 -32 -70 -32q-38 0 -67 27t-29 71v501h28v-501q0 -33 22 -53q19 -17 47 -17q29 0 48.5 18.5t19.5 53.5v499h28v-590zM221 640h-30l-98 160h35z" />
    <glyph glyph-name="uacute" unicode="&#xfa;" 
d="M253 -4l-27 23q-28 -32 -70 -32q-38 0 -67 27t-29 71v501h28v-501q0 -33 22 -53q19 -17 47 -17q29 0 48.5 18.5t19.5 53.5v499h28v-590zM221 800l-98 -160h-30l93 160h35z" />
    <glyph glyph-name="ucircumflex" unicode="&#xfb;" 
d="M253 -4l-27 23q-28 -32 -70 -32q-38 0 -67 27t-29 71v501h28v-501q0 -33 22 -53q19 -17 47 -17q29 0 48.5 18.5t19.5 53.5v499h28v-590zM259 698l-21 -18l-82 94l-82 -94l-21 18l103 116z" />
    <glyph glyph-name="udieresis" unicode="&#xfc;" 
d="M253 -4l-27 23q-28 -32 -70 -32q-38 0 -67 27t-29 71v501h28v-501q0 -33 22 -53q19 -17 47 -17q29 0 48.5 18.5t19.5 53.5v499h28v-590zM253 683h-28v117h28v-117zM88 683h-28v117h28v-117z" />
    <glyph glyph-name="yacute" unicode="&#xfd;" horiz-adv-x="254" 
d="M234 586l-113 -715q-6 -39 -34 -62t-62 -23h-20v25h21q23 0 43 18.5t25 47.5l19 121l-93 588h29l78 -525l14 122l64 403h29zM201 800l-98 -160h-30l93 160h35z" />
    <glyph glyph-name="thorn" unicode="&#xfe;" 
d="M253 86q0 -45 -27.5 -72t-66.5 -27q-49 0 -71 34v-235h-28v1014h28v-235q22 34 71 34q39 0 66.5 -27t27.5 -72v-414zM225 85v416q0 31 -18.5 50.5t-48.5 19.5q-31 0 -50.5 -20t-19.5 -50v-416q0 -30 19.5 -50t50.5 -20q30 0 48.5 19.5t18.5 50.5z" />
    <glyph glyph-name="ydieresis" unicode="&#xff;" horiz-adv-x="254" 
d="M234 586l-113 -715q-6 -39 -34 -62t-62 -23h-20v25h21q23 0 43 18.5t25 47.5l19 121l-93 588h29l78 -525l14 122l64 403h29zM223 683h-28v117h28v-117zM58 683h-28v117h28v-117z" />
    <glyph glyph-name="dotlessi" unicode="&#x131;" horiz-adv-x="148" 
d="M88 0h-28v586h28v-586z" />
    <glyph glyph-name="Lslash" unicode="&#x141;" horiz-adv-x="273" 
d="M253 0h-193v397l-60 -19v27l60 19v376h28v-368l60 19v-27l-60 -19v-380h165v-25z" />
    <glyph glyph-name="lslash" unicode="&#x142;" horiz-adv-x="148" 
d="M148 424l-60 -19v-405h-28v397l-60 -19v27l60 19v376h28v-368l60 19v-27z" />
    <glyph glyph-name="OE" unicode="&#x152;" horiz-adv-x="433" 
d="M398 0h-241q-39 0 -66 27q-31 29 -31 80v586q0 52 30 81q27 26 66 26h242v-25h-145v-362h107v-25h-107v-363h145v-25zM225 25v750h-68q-28 0 -48.5 -21t-20.5 -59v-590q0 -38 20.5 -59t48.5 -21h68z" />
    <glyph glyph-name="oe" unicode="&#x153;" horiz-adv-x="478" 
d="M418 96q0 -51 -29 -80t-68 -29q-58 0 -82 54q-25 -54 -83 -54q-39 0 -66 27q-30 30 -30 82v394q0 51 31 82q27 27 66 27q58 0 82 -54q26 54 83 54q39 0 66 -27q30 -30 30 -82v-193h-165v-202q0 -38 20 -59t48 -21t48.5 21t20.5 59v118h28v-117zM390 322v169
q0 38 -20.5 59t-48.5 21t-48 -21t-20 -59v-169h137zM225 95v396q0 38 -20.5 59t-48.5 21t-48 -21t-20 -59v-396q0 -38 20 -59t48 -21t48.5 21t20.5 59z" />
    <glyph glyph-name="Scaron" unicode="&#x160;" 
d="M253 92q0 -52 -30 -80q-26 -25 -65 -25q-40 0 -67 26q-31 30 -31 80v151h28v-151q0 -32 19 -55t51 -23q67 0 67 79q0 48 -21 113l-123 382q-21 65 -21 118q0 52 30 80q26 25 65 25q40 0 67 -26q31 -30 31 -80v-150h-28v150q0 32 -19 55t-51 23q-67 0 -67 -79
q0 -46 19 -106l123 -382q23 -70 23 -125zM259 992l-103 -116l-103 116l21 18l82 -94l82 94z" />
    <glyph glyph-name="scaron" unicode="&#x161;" 
d="M253 92q0 -52 -30 -80q-26 -25 -65 -25q-40 0 -67 26q-31 30 -31 80v120h28v-120q0 -32 19 -55t51 -23q67 0 67 79q0 34 -26 85l-110 216q-29 57 -29 99q0 52 30 80q26 25 65 25q40 0 67 -26q31 -30 31 -80v-113h-28v113q0 32 -19 55t-51 23q-67 0 -67 -79q0 -34 27 -87
l110 -216q28 -55 28 -97zM259 794l-103 -116l-103 116l21 18l82 -94l82 94z" />
    <glyph glyph-name="Ydieresis" unicode="&#x178;" horiz-adv-x="301" 
d="M261 800l-97 -422v-378h-28v380l-96 420h29l82 -374l17 90l64 284h29zM247 851h-28v117h28v-117zM82 851h-28v117h28v-117z" />
    <glyph glyph-name="Zcaron" unicode="&#x17d;" horiz-adv-x="263" 
d="M263 0h-223l186 775h-176v25h211l-187 -775h189v-25zM259 992l-103 -116l-103 116l21 18l82 -94l82 94z" />
    <glyph glyph-name="zcaron" unicode="&#x17e;" horiz-adv-x="283" 
d="M253 0h-223l183 561h-173v25h211l-184 -561h186v-25zM249 794l-103 -116l-103 116l21 18l82 -94l82 94z" />
    <glyph glyph-name="circumflex" unicode="&#x2c6;" horiz-adv-x="307" 
d="M259 698l-21 -18l-82 94l-82 -94l-21 18l103 116z" />
    <glyph glyph-name="caron" unicode="&#x2c7;" horiz-adv-x="307" 
d="M259 794l-103 -116l-103 116l21 18l82 -94l82 94z" />
    <glyph glyph-name="breve" unicode="&#x2d8;" 
d="M253 800q0 -40 -28 -68.5t-68 -28.5t-68.5 28.5t-28.5 68.5h28q0 -28 20.5 -48.5t48.5 -20.5t48 20.5t20 48.5h28z" />
    <glyph glyph-name="dotaccent" unicode="&#x2d9;" horiz-adv-x="307" 
d="M170 683h-27v117h27v-117z" />
    <glyph glyph-name="ring" unicode="&#x2da;" horiz-adv-x="307" 
d="M235 775q0 -34 -24 -57.5t-57 -23.5q-34 0 -57.5 23.5t-23.5 57.5q0 33 23.5 57t57.5 24q33 0 57 -24t24 -57zM210 775q0 23 -16.5 39.5t-39.5 16.5t-39.5 -16.5t-16.5 -39.5t16.5 -39.5t39.5 -16.5t39.5 16.5t16.5 39.5z" />
    <glyph glyph-name="ogonek" unicode="&#x2db;" 
d="M256 -167h-35l-83 160h28z" />
    <glyph glyph-name="tilde" unicode="&#x2dc;" horiz-adv-x="307" 
d="M261 789q-38 -42 -66 -42q-21 0 -46.5 19t-36.5 19q-14 0 -45 -34l-20 19q37 43 65 43q21 0 46.5 -19t36.5 -19q15 0 45 33z" />
    <glyph glyph-name="hungarumlaut" unicode="&#x2dd;" 
d="M253 800l-45 -117h-29l45 117h29zM134 800l-45 -117h-29l45 117h29z" />
    <glyph glyph-name="endash" unicode="&#x2013;" horiz-adv-x="500" 
d="M500 388h-500v25h500v-25z" />
    <glyph glyph-name="emdash" unicode="&#x2014;" horiz-adv-x="1000" 
d="M1000 388h-1000v25h1000v-25z" />
    <glyph glyph-name="quoteleft" unicode="&#x2018;" horiz-adv-x="92" 
d="M92 800l-60 -309h-32l64 309h28z" />
    <glyph glyph-name="quoteright" unicode="&#x2019;" horiz-adv-x="92" 
d="M92 800l-64 -309h-28l60 309h32z" />
    <glyph glyph-name="quotesinglbase" unicode="&#x201a;" horiz-adv-x="72" 
d="M72 176l-64 -309h-28l60 309h32z" />
    <glyph glyph-name="quotedblleft" unicode="&#x201c;" horiz-adv-x="212" 
d="M212 800l-60 -309h-32l64 309h28zM92 800l-60 -309h-32l64 309h28z" />
    <glyph glyph-name="quotedblright" unicode="&#x201d;" horiz-adv-x="212" 
d="M212 800l-64 -309h-28l60 309h32zM92 800l-64 -309h-28l60 309h32z" />
    <glyph glyph-name="quotedblbase" unicode="&#x201e;" horiz-adv-x="192" 
d="M192 176l-64 -309h-28l60 309h32zM72 176l-64 -309h-28l60 309h32z" />
    <glyph glyph-name="dagger" unicode="&#x2020;" horiz-adv-x="298" 
d="M268 561h-105v-631h-28v631h-105v25h105v150h28v-150h105v-25z" />
    <glyph glyph-name="daggerdbl" unicode="&#x2021;" horiz-adv-x="298" 
d="M268 80h-105v-150h-28v150h-105v25h105v456h-105v25h105v150h28v-150h105v-25h-105v-456h105v-25z" />
    <glyph glyph-name="bullet" unicode="&#x2022;" 
d="M253 400q0 -40 -28 -68.5t-68 -28.5t-68.5 28.5t-28.5 68.5t28.5 68t68.5 28t68 -28t28 -68z" />
    <glyph glyph-name="perthousand" unicode="&#x2030;" horiz-adv-x="673" 
d="M253 550q0 -51 -29 -80t-68 -29t-66 27q-30 30 -30 82v154q0 51 31 82q27 27 66 27t66 -27q30 -30 30 -82v-154zM613 96q0 -51 -29 -80t-68 -29t-66 27q-30 30 -30 82v154q0 51 31 82q27 27 66 27t66 -27q30 -30 30 -82v-154zM359 463l-286 -152l-12 24l286 152zM363 96
q0 -51 -29 -80t-68 -29t-66 27q-30 30 -30 82v154q0 51 31 82q27 27 66 27t66 -27q30 -30 30 -82v-154zM225 549v156q0 38 -20.5 59t-48.5 21t-48 -21t-20 -59v-156q0 -38 20 -59t48 -21t48.5 21t20.5 59zM585 95v156q0 38 -20.5 59t-48.5 21t-48 -21t-20 -59v-156
q0 -38 20 -59t48 -21t48.5 21t20.5 59zM335 95v156q0 38 -20.5 59t-48.5 21t-48 -21t-20 -59v-156q0 -38 20 -59t48 -21t48.5 21t20.5 59z" />
    <glyph glyph-name="guilsinglleft" unicode="&#x2039;" horiz-adv-x="242" 
d="M222 222l-20 -20l-182 182l182 182l20 -20l-162 -162z" />
    <glyph glyph-name="guilsinglright" unicode="&#x203a;" horiz-adv-x="242" 
d="M222 384l-182 -182l-20 20l162 162l-162 162l20 20z" />
    <glyph glyph-name="trademark" unicode="&#x2122;" horiz-adv-x="488" 
d="M428 440h-28v165l2 102l-18 -104l-31 -163h-27l-32 163l-18 104l2 -102v-165h-28v360h29l45 -214l15 -95l15 95l45 214h29v-360zM218 775h-65v-335h-28v335h-65v25h158v-25z" />
    <glyph glyph-name="fi" unicode="&#xf001;" horiz-adv-x="333" 
d="M273 0h-28v561h-120v-561h-28v561h-77v25h77v105q0 51 30 82q28 27 67 27h79v-25h-80q-27 0 -47.5 -22.5t-20.5 -60.5v-106h148v-586z" />
    <glyph glyph-name="fl" unicode="&#xf002;" horiz-adv-x="333" 
d="M273 0h-28v775h-52q-27 0 -47.5 -22.5t-20.5 -60.5v-692h-28v561h-77v25h77v105q0 51 30 82q28 27 67 27h79v-800z" />
    </font>
</defs>
</svg>
